<?xml version="1.0" encoding="utf-8"?>
<!-- Generator: Adobe Illustrator 19.1.0, SVG Export Plug-In . SVG Version: 6.00 Build 0)  -->
<svg version="1.1" baseProfile="tiny" id="レイヤー_1"
	 xmlns="http://www.w3.org/2000/svg" xmlns:xlink="http://www.w3.org/1999/xlink" x="0px" y="0px" viewBox="0 0 640 946"
	 xml:space="preserve">
<g>
	<path d="M640.8,798.7c0,18.4,0,36.8,0,55.2c-11.3,4.3-22.5,8.6-33.6,12.9c-1.2,5.9-2.4,11.3-3.6,17.2c-6.1-1.3-11.9-2.8-17.8-3.7
		c-4.9-0.8-11.1-2.9-14.7-0.8c-34.2,19.6-67.9,39.9-101.8,60.1c-2.6-1.5-5.1-3-7.6-4.5c-43.4-25.8-86.8-51.6-130.3-77.3
		c-1.2-0.7-3.4-0.9-4.5-0.3c-44.4,26.2-88.8,52.6-133.2,79c-5.5,3.3-11.1,6.5-16.9,9.9c-14.8-36.7-29.3-72.8-43.8-108.7
		c-30.2,5.1-59.7,10.1-89.6,15.1c0-8,0-15.4,0-23.3c-8.7,0.4-17,0.8-25.6,1.2c4.4-16.4,8.4-32.2,12.9-47.9c1.5-5.2,0.6-9-2.9-13.1
		c-5.3-6.1-9.9-12.8-15-19.5c5.8-4.6,11.2-9.3,16.9-13.4c5.9-4.2,10.4-8.4,9.1-16.9c-1-6.6-0.2-13.5-0.2-20.6
		c5,0.8,10.4,1.6,16.5,2.5c-7.4-35.6-14.6-70.6-22-106.2c-8.5,3.8-16.4,7.4-24.5,11c-0.1-0.8-0.2-1.1-0.2-1.5
		c1.7-11.2,3.4-22.4,5-33.6c0.4-3,2-7.3,0.7-9c-3.9-4.7-9.1-8.4-13.8-12.5c0-6.6,0-13.1,0-19.7c8.8-0.3,17.6-0.6,26.3-1
		c1,0,2.5-0.6,2.9-1.4c4.7-8.3,9.3-16.7,13.8-25.1c0.3-0.6,0-2-0.5-2.7c-11.4-14.9-22.9-29.8-34.4-44.6c-2.5-3.2-5.4-6.2-8-9.3
		c0-21.6,0-43.2,0-64.8c6.5-1.8,12.9-3.6,19.9-5.6c-2.8-5-5.4-9.8-8-14.6c3.8-1.5,6.7-2.7,8.6-3.4c0-26.4,0-51.9,0-77.8
		c10.5,1.2,21.3,2.5,32.9,3.8c-6.4-11.4-12.4-22.1-18.5-32.9c4.6-3.1,8.9-6,13.9-9.4c-6-0.5-11.2-1-16.9-1.5
		c-2.9-8.9-5.9-18.2-8.9-27.5c-7.9,0.6-15.5,1.3-23.1,1.9c0-71,0-142.1,0-213.1C9.7,5.3,19,9.1,28.3,12.9
		c28.3,11.9,56.7,23.7,85,35.6c24.3,10.2,48.5,20.4,72.8,30.5c9.2,3.9,18.4,7.7,28.3,11.8c-1-7.1-1.9-13.6-2.9-20.8
		c26.5,10,52.2,19.8,78.1,29.6c12.3-32.9,24.5-65.6,36.9-98.7c78.1,18.2,156.1,36.3,234.5,54.5c-3.1,5.1-5.4,9.9-8.7,14
		c-7.1,8.6-9.1,16.8-0.7,25.6c0.6,0.6,0.9,1.5,1.3,2.2c11.8,20,23.6,40.1,35.7,60.4c7.1-5.7,14-11.2,22.5-18c0,14.2,0,26.8,0,39
		c10.8,3.8,20.3,7.1,29.8,10.4c0,33.4,0,66.9,0,100.3c-0.3,0.5-0.8,1-0.9,1.5c-1.9,6.1-3.7,12.3-5.5,18.4
		c-4.4,14.6-8.8,29.2-13.4,44.4c6.9,0.3,13.4,0.7,19.9,1c0,18.2,0,36.5,0,54.7c-0.4,1.1-0.9,2.3-1.2,3.4
		c-4.2,15.2-8.5,30.4-12.7,45.6c-4.2,15.2-8.4,30.4-12.4,45.6c-1.3,4.9-3.4,10.2-2.7,14.9c2,12.9,5.3,25.6,8.1,38.4
		c2.5,11.3,4.9,22.5,7.4,33.8c2.4,11,4.9,22,7.4,33.3c-7.1,0-13.8,0-20.9,0c-2.9,36.1-5.8,72-8.7,107.9c-5.3,0.4-10.2,0.8-15.7,1.3
		c5.7,16.8,11.3,33.1,16.8,49.4c2.3,1.1,4.5,2.1,6.6,3.1C622.1,790.3,631.5,794.5,640.8,798.7z"/>
</g>
</svg>
