<?xml version="1.0" encoding="utf-8"?>
<!-- Generator: Adobe Illustrator 19.1.0, SVG Export Plug-In . SVG Version: 6.00 Build 0)  -->
<svg version="1.1" baseProfile="tiny" id="レイヤー_1"
	 xmlns="http://www.w3.org/2000/svg" xmlns:xlink="http://www.w3.org/1999/xlink" x="0px" y="0px" viewBox="0 0 353 227"
	 xml:space="preserve">
<g>
	<path d="M14.3,178.4c6.1-13.7,11.9-26.6,17.8-39.6c-1.7-2.6-3.3-5.1-5-7.8c1.8-1.3,3.4-2.5,5.5-4.1c-3.7-1.2-6.8-2.2-10.3-3.3
		C14.9,82.7,7.5,41.9,0,0c52.8,10.9,104.7,21.5,156.6,32.2c1,1.9,2,3.6,3.3,6c0.8-2.2,1.4-3.8,2.2-5.8c40.7-1.7,81.4-3.3,122.5-5
		c3.7,10.9,7.3,21.6,11.1,32.6c-4.1,1.2-7.8,2.4-12.6,3.8c3.2,1.3,5.4,2.2,8,3.2c20.3,37.9,40.7,75.9,61.5,114.8
		c-17.5,0-34,0-51.1,0c3.9,14.5,7.6,28.4,11.6,43.2C213.2,209.5,114.1,194,14.3,178.4z"/>
</g>
</svg>
