<?xml version="1.0" encoding="utf-8"?>
<!-- Generator: Adobe Illustrator 19.1.0, SVG Export Plug-In . SVG Version: 6.00 Build 0)  -->
<svg version="1.1" baseProfile="tiny" id="レイヤー_1"
	 xmlns="http://www.w3.org/2000/svg" xmlns:xlink="http://www.w3.org/1999/xlink" x="0px" y="0px" viewBox="0 0 311 202"
	 xml:space="preserve">
<g>
	<path d="M59.4,202.4c-0.3,0.3-0.5,0.6-0.7,0.9c-1.3,0-2.6,0-4,0c-0.2-5.7,0.5-11.5-1.6-17.2c-4.7,2.5-9.4,4.9-14.2,7.4
		c0-3.5-0.4-6.8,0.1-10c1.1-8.6,0.6-17.2,0.7-25.7c0-7.2,0.5-14.5,0.7-21.7c0.2-6.8,0.2-13.5,0.3-20.3c0-2.8,0.1-5.6-0.2-8.4
		c-0.1-1.8-0.7-3.5-1.2-5.5c-7.4,2.2-14.5,4.4-21.7,6.6c-1.8-1.9-3.6-3.9-5.5-5.8c-1.6-1.7-3.1-3.3-4.7-5c-1.1-1.2-1.6-2.6-1.8-4.3
		c-0.2-2.5-0.9-4.9-1.4-7.3c-0.8-3.8-1.6-7.6-2.5-11.8C42,49.8,83.2,26.5,123.7,1.9c2.6,9.5,5.1,19,7.7,28.5
		C143.2,26,154.7,21,166.6,17c0.5,7.8,1.1,15.3,1.6,23.1c3.4,0.4,7,0,10.7,0c0-4.2,0-8.2,0-12.2c1.6-1.2,3.5-1.6,5.4-1.9
		c3.8-0.6,7.6-1.3,11.4-1.5c8.6-0.6,16.9-3.1,25.4-4.1c1.7-0.2,3.3-0.8,5-1.1c1.1-0.2,2.3-0.1,3.3-0.2c8.6-1.4,17-2.8,25.5-4.1
		c0,0,0,0,0,0c1.1-0.2,2.3-0.4,3.4-0.6c1.3-0.2,2.7-0.3,4-0.5c4.3-0.6,8.5-1.3,12.8-1.9c3.9-0.6,7.8-1.3,11.7-1.8
		c2.1-0.2,4.1-0.2,6-1.4c0.3-0.2,0.8-0.3,1.1-0.3c4.2-0.5,8.4-0.9,12.6-1.4c2.5,4.1,3.3,8.7,6.2,12.4c0,42.5,0,85.2,0,128
		c-3.3-0.9-6.5-1.8-10.1-2.8c0.2,2.5,0.2,4.9,0.6,7.2c1.1,6.1,2.4,12.2,3.5,18.3c0.7,3.4,1.3,6.9,2,10.3c0.4,1.8,0.2,3.3-0.5,4.9
		c-0.9,0.1-1.9,0.1-2.9,0.2c-2.8,0.1-5.7-0.1-8.5,0.5c-3.2,0.7-6.2,0.9-9.4,0.5c-0.9-0.1-1.9-0.2-2.7,0.1c-3.5,1-7,1-10.6,1.1
		c-3.5,0.1-6.9,0.7-10.4,1c-3.6,0.2-7.3,0.3-10.9,0.5c-4.4,0.3-8.8,0.6-13.3,0.9c-4.5,0.3-9,0.6-13.5,1c-5.3,0.4-10.5,0.8-15.8,1.2
		c-3.7,0.3-7.3,0.4-11,0.7c-2.6,0.2-5.2,0.7-7.9,0.8c-7.2,0.5-14.3,0.9-21.5,1.3c-4.8,0.3-9.7,0.3-14.4,1c-4.4,0.6-8.8,0.6-13.3,0.9
		c-5.7,0.4-11.3,0.8-17,1.2c-3.5,0.2-7,0.4-10.5,0.7c-2.9,0.2-5.7,0.6-8.6,0.8c-2.3,0.1-4.7-0.3-6.9,0.3c-3.7,0.9-7.3,0.2-11,0.7
		c-9.5,1.2-19.1,1.2-28.6,1.9C59.8,202.3,59.7,202.3,59.4,202.4z"/>
</g>
</svg>
