<?xml version="1.0" encoding="utf-8"?>
<!-- Generator: Adobe Illustrator 19.1.0, SVG Export Plug-In . SVG Version: 6.00 Build 0)  -->
<svg version="1.1" baseProfile="tiny" id="レイヤー_1"
	 xmlns="http://www.w3.org/2000/svg" xmlns:xlink="http://www.w3.org/1999/xlink" x="0px" y="0px" viewBox="0 0 452 158"
	 xml:space="preserve">
<g>
	<path d="M391,18.7c2.5-0.3,5.1-0.5,7.6-0.8c0-0.1,0-0.3,0-0.4c3.6-0.4,7.1-0.8,10.7-1.3c4.1-0.6,8.2-1.4,12.3-2.1
		c1.9-0.3,3.8-0.6,5.8-1c0.5-0.1,0.9-0.4,1.7-0.9c1.2,0,2.9,0,4.6,0c0-0.2,0-0.3-0.1-0.5c5.8-0.9,11.6-1.9,17.8-2.8
		c-0.1,1.2-0.2,2-0.2,3c-0.3,0.2-0.6,0.4-0.8,0.5c-0.1,0.9-0.1,1.7-0.2,2.5c-0.3,0.2-0.5,0.4-0.8,0.5c-0.1,0.9-0.1,1.7-0.2,2.5
		c-0.1,0-0.2,0-0.3-0.1c-0.3,1-0.5,2.1-0.8,3.1c0,0-0.1,0-0.1-0.1c-1,3.3-2,6.7-3,10c-0.1,0-0.1,0-0.2,0c-0.3,1.3-0.5,2.6-0.8,3.9
		c-0.1,0-0.1,0-0.2-0.1c-0.6,2.1-1.2,4.1-1.8,6.2c0,0-0.1,0-0.1,0c-0.4,1.5-0.9,3-1.3,4.5c-0.1,0-0.1,0-0.2-0.1
		c-0.2,1-0.4,2.1-0.6,3.1c-0.1,0-0.3,0-0.4-0.1c-0.1,0.8-0.1,1.6-0.2,2.5c-0.2,0.2-0.5,0.4-0.8,0.6c-0.1,0.8-0.1,1.6-0.2,2.4
		c-0.1,0-0.2-0.1-0.3-0.1c-1.4,4.9-2.9,9.8-4.3,14.7c-0.1,0-0.2,0-0.3-0.1c-0.1,0.8-0.1,1.7-0.2,2.5c-0.1,0-0.3-0.1-0.4-0.1
		c-0.2,1-0.5,2.1-0.7,3.1c-0.1,0-0.1,0-0.2-0.1c-0.7,2.5-1.5,5.1-2.2,7.6c0,0-0.1,0-0.1,0c-1,3.4-1.9,6.7-2.9,10.1
		c-0.1,0-0.2-0.1-0.3-0.1c-0.1,0.8-0.1,1.7-0.2,2.5c-0.1,0-0.2-0.1-0.3-0.1c-0.3,1-0.6,2-0.7,2.6c-0.9,3-1.7,5.5-2.5,8.1
		c-0.1,0-0.1,0-0.2-0.1c-0.5,1.8-1,3.6-1.5,5.7c0,0-0.3,0.2-0.5,0.3c-0.3,1.4-0.5,2.7-0.7,3.9c-0.1,0-0.2,0-0.3,0
		c-1.5,5.2-3,10.3-4.6,15.5c0,0-0.1,0-0.1,0c-0.4,1.5-0.8,3-1.2,4.5c0,0-0.1,0-0.1,0c-1.6,5.4-3.2,10.7-4.9,16.1
		c-0.1,0-0.2-0.1-0.3-0.1c-0.1,0.8-0.1,1.7-0.2,2.5c-0.1,0-0.1,0-0.2-0.1c-0.5,1.7-1.1,3.4-1.6,5.2c-4-0.5-7.7-0.9-11.4-1.4
		c0-0.3,0-0.6,0.1-0.8c-2.7,0-5.4,0-8,0c0-0.1,0-0.3,0-0.4c-5-0.4-9.9-0.8-14.9-1.3c-6.3-0.6-12.6-1.4-18.9-2.1
		c-2.7-0.3-5.3-0.6-8-0.9c-3-0.3-6.1-0.6-9.1-1c-0.4-0.1-0.8-0.4-1.1-0.6c-3.2-0.3-6.3-0.6-9.5-0.9c-0.2,0.2-0.6,0.6-1,1.1
		c-0.2,0.8-0.4,1.8-0.6,2.8c-0.1,0-0.2,0-0.3,0c-0.5,1.3-0.9,2.5-1.4,3.7c-7.2,0-14.3,0-21.4,0c0-0.1,0-0.2,0-0.3
		c-0.8-0.2-1.6-0.4-2.5-0.4c-12.2-0.1-24.4-0.2-36.6-0.4c-14-0.2-28.1-0.6-42.1-1c-4.7-0.1-9.5-0.6-14.4-0.9
		c0.7-2.8,1.5-5.7,2.3-9.2c-3.3-0.3-6.1-0.5-8.9-0.7c-4.5-0.4-8.9-0.7-13.4-1.1c-3.5-0.3-6.9-0.7-10.4-1c-3.5-0.3-7.1-0.6-10.6-1
		c-3.5-0.4-7-0.8-10.5-1.6c-1.8-0.1-3.6-0.2-5.5-0.3c-1.9,2.6-3.7,5.1-5.8,8c-11.4,1.2-23.2,2.3-34.9,3.5c0,0.1,0,0.2,0,0.3
		c-3.3,0.2-6.6,0.3-10,0.5c0,0.1,0,0.1,0,0.2c-0.8,0.2-1.6,0.5-2.4,0.5c-5.9,0.4-11.8,0.8-17.7,1.2c-3.8,0.3-7.5,0.7-11.2,1.1
		c-3.6,0.3-7.2,0.7-10.8,1.1c-3.3,0.3-6.6,0.7-10,1.1c0.7-3.4,1.3-6.3,1.9-9.3c-0.8,0-1.2,0-0.9,0c-2,0.7-3.3,1.1-4.5,1.5
		c0,0.1,0,0.1,0.1,0.2c-1,0.2-2,0.4-3.1,0.6c0,0.1,0.1,0.3,0.1,0.4c-0.8,0.1-1.6,0.2-2.5,0.2c-0.2,0.2-0.3,0.5-0.4,0.6
		c-1.2,0.2-2.2,0.5-3.2,0.7c0,0.1,0,0.2,0,0.2c-5.5,1.7-10.9,3.4-16.5,5.2c-0.6-0.6-1.3-1.4-2.2-2.3c-0.1-0.2-0.2-0.6-0.1-0.6
		c-2.9-4.1-5.6-7.8-8.3-11.6c0,0,0,0,0,0c-1.7-2.5-3.4-5.1-4.8-7.2c1.3-2.3,2.1-3.9,3-5.5c0,0,0,0,0,0c0.8-1.5,1.7-3,2.4-4.4
		c0.4-0.8,0.7-1.5,1.1-2.1c0,0,0,0,0.1,0c0.3-0.7,0.6-1.3,0.6-1.4c0.8-1.4,1.3-2.3,2-3.5c0.5-1,1.1-2.3,1.7-3.6c0,0,0,0,0.1,0
		c0.8-1.5,1.7-3,2.8-5.2c0.5-0.9,1.3-2.4,2.4-4.5c0-0.1,0.3-0.7,0.7-1.4c0.1,0,0.2,0.1,0.3,0.1c0.1-0.5,0.1-0.9,0.1-0.7
		c2.1-3.9,3.9-7.2,6-11c0,0,0.1-0.5,0.1-1c0.3-0.1,0.5-0.2,0.8-0.2c0.1-0.6,0.2-1.1,0.2-1c1.6-2.9,2.9-5.2,4.2-7.6c0,0,0,0,0.1,0
		c0.3-0.6,0.6-1.3,0.9-1.9c0,0,0,0,0,0c0.7-1.3,1.3-2.6,2.1-4.1c0.4-0.7,0.9-1.6,1.5-2.6c0.2-0.5,0.5-1.2,0.8-1.8
		c0.7-1.2,1.3-2.2,2.3-3.9c0,0.2,0-0.2,0,0.1c0.7-1.4,1-2,1.3-2.7c0,0,0.1,0,0.1,0c0.3-0.7,0.7-1.5,1.3-2.8
		c4.4-0.2,9.1-0.5,13.9-0.6c4.2-0.1,8.4,0,12.6-0.2c9-0.3,17.9-0.6,26.9-1c2.7-0.1,5.4-0.6,8.2-0.8c0.6-0.1,1.2,0.1,1.8,0.1
		c-0.5,1.5-1,2.8-1.5,4.2c-0.1,0-0.2-0.1-0.3-0.1c-0.1,0.5-0.1,0.9-0.2,1.4c-0.1,0-0.2-0.1-0.3-0.1c-0.3,1-0.5,2.1-0.8,3.4
		c6.2-0.5,12.1-0.9,18.2-1.3c0,0,0.3-0.3,0.6-0.6c3.6,0,7.3,0,10.8,0c2.4-2.1,4.6-4.1,6.8-6c4.6,0,9,0,13.3,0c0-0.1,0-0.2,0-0.4
		c0.8-0.2,1.5-0.5,2.3-0.5c3.7-0.1,7.4-0.1,11-0.3c4.6-0.2,9.3-0.6,13.9-0.9c5.4-0.4,10.8-0.7,16.1-1.1c4.9-0.4,9.8-0.9,15.1-1.3
		c0,0,0.4-0.3,0.8-0.6c0.3-0.7,0.6-1.4,0.9-2.1c0.1,0,0.2,0.1,0.3,0.1c0.1-0.5,0.1-1,0.1-0.6c0.7-1.5,1-2.2,1.3-2.9c0,0,0,0,0,0
		c0.8-1.9,1.7-3.8,2.8-6.3c0,0.3,0-0.2,0-0.1c0.7-1.4,1.1-2.3,1.9-3.7c0,0.2,0-0.4,0.1-1c0.2-0.1,0.5-0.3,0.6-0.3
		c0.3-0.9,0.6-1.5,0.8-2.2c0.1,0,0.2,0.1,0.3,0.1c0.1-0.5,0.1-1,0.1-1c0.6-1.1,0.9-1.8,1.5-3c2.3-0.3,5.1-0.8,7.9-1.2
		c0-0.2,0-0.3-0.1-0.5c1.8,0,3.6,0,5.4,0c0-0.1,0-0.2-0.1-0.3c0.6-0.2,1.2-0.5,1.8-0.6c3.6-0.4,7.1-0.7,10.7-1.2
		c4.7-0.6,9.4-1.3,14.1-2.1c2.1-0.3,4.2-0.8,6.3-1.6c1.7-0.1,3.4-0.3,5.2-0.4c0-0.1,0-0.2-0.1-0.3c6.7-1.6,13.4-3.3,20.2-4.9
		c0-0.1,0-0.1,0-0.2c1.6-0.2,3.2-0.5,5-0.7c0.1-0.1,0.3-0.4,0.3-0.3c4.6-1.1,8.9-2,13.2-3c0,0,0-0.1,0-0.1c2.7-0.6,5.4-1.2,8-1.8
		c0-0.1-0.1-0.2-0.1-0.3c1.4-0.2,2.7-0.4,4.1-0.6c0-0.1,0-0.2,0-0.3c6.8-1.6,13.6-3.1,20.4-4.7c0-0.1,0-0.2,0-0.3
		c1.4-0.2,2.7-0.4,4.1-0.5c0-0.1,0-0.2-0.1-0.3c2.7-0.6,5.3-1.2,8-1.8c0,0,0-0.1,0-0.1c3.3-0.8,6.6-1.6,10.1-2.5
		c0.4,7.3,0.9,14.4,1.3,21.8c8.6-1.5,17.1-2.9,25.6-4.3C391,18.8,391,18.7,391,18.7z"/>
</g>
</svg>
