<?xml version="1.0" encoding="utf-8"?>
<!-- Generator: Adobe Illustrator 19.1.0, SVG Export Plug-In . SVG Version: 6.00 Build 0)  -->
<svg version="1.1" baseProfile="tiny" id="レイヤー_1"
	 xmlns="http://www.w3.org/2000/svg" xmlns:xlink="http://www.w3.org/1999/xlink" x="0px" y="0px" viewBox="0 0 640 952"
	 xml:space="preserve">
<g>
	<path d="M0,709.9c0-44,0-88,0-132c0.4-0.5,1.1-0.9,1.3-1.5c2-5,3.8-10,5.8-15.1c-1.2-3.1-2.4-6.2-3.5-9.4c-0.5-1.3-1-2.5-1.2-3.8
		c-0.5-3-0.7-6-1.2-9c-0.1-0.7-0.8-1.3-1.2-2c0-1.4,0-2.9,0-4.3c4.1-2.1,8.2-4.3,12.5-6.3c1.8-0.8,3.1-2.1,4.3-3.6
		c2.5-3.1,5.1-6.3,7.6-9.4c0.7-0.9,1.5-1.8,1.8-2.8c0.9-3.6,1.6-7.3,2.3-10.9c0.2-0.8-0.1-1.7-0.1-2.7c-3.7-0.1-7.1-0.2-10.5-0.5
		c-1.9-0.2-3.1,0.5-4.2,2c-1.5,2.2-3.2,4.2-4.9,6.4c-1.3-0.2-2.4-0.3-3.5-0.4c-1.7-0.2-3.4-0.4-5.1-0.7C0,361.6,0,219.2,0,76.8
		c0.5-0.5,1.1-0.9,1.3-1.4c1-2.4,2-4.8,2.7-7.3c0.6-2,1.7-2.4,3.5-2.4c7.8-0.2,15.5-0.4,23.3-0.6c1.1,0,2.4,0.3,3.4,0.9
		c5.3,3,10.6,6,15.7,9.4c3.9,2.6,8,3.6,12.6,3.8c8.9,0.3,17.9,0.8,26.8,1.3c1.3,0.1,2.5,0.5,3.7,0.9c2.4,0.8,4.7,1.9,7.1,2.6
		c4.4,1.3,8.4,3.2,11.8,6.3c1.3,1.2,2.7,2.2,4,3.4c1,1,2,2,2.7,3.3c4.7,8.7,9.4,17.5,14.1,26.2c1.3,2.4,2.7,4.7,3.8,6.7
		c4.1,0.9,7.6,1.7,10.9,2.5c2.9-3.4,5.6-6.4,8-9.2c7.1-0.7,13.6-1.4,21.2-2.1c0.2,0.3,0.7,1.2,1.2,1.9c1.6,2.2,3.1,4.4,4.8,6.5
		c1.3,1.6,2.7,3.3,4.5,4.4c2.3,1.4,4.9,2.1,7.4,3.2c7.2,3.1,5.2,3.4,11.3-0.9c4.9-3.5,10.4-6.5,13.1-12.3c0.3-0.7,0.8-1.3,1.3-2
		c1.6-2.3,1.5-2.6-0.3-5c-2.2-2.7-4.7-5.2-6.4-8.2c-2.8-4.9-5.8-9.7-6.7-15.4c-0.6-3.5-1.8-6.8-2-10.3c-0.4-5-0.1-10.1-0.1-15.1
		c0-0.9,0.4-1.9,0.5-2.8c0.8-4.1,2-8.3,2.2-12.4c0.4-6,0.1-12,0.1-18c0-0.8,0-1.7-0.3-2.4c-1.7-4-3.7-7.9-5.3-12
		c-2.1-5.3-5.7-9.5-8.7-14.1c-1.3-2-2.6-4.1-3.9-6.1C282.4,0,375.7,0,469,0c-1.1,2-2.1,3.9-3.2,5.9c-1.7,3-3.9,5.9-5.2,9.1
		c-2.2,5.2-4.1,10.5-5.8,15.8c-1.9,6.2-3.5,12.5-3.2,19c0,0.8,0,1.6-0.1,2.4c-0.4,2.8,0.2,5.3,1.6,7.8c1.2,2,2.2,4,3.1,6.2
		c0.9,2.2,1.6,4.5,2.3,6.7c0.7,2.3,1.2,4.6,1.7,6.9c0.4,2.2,1.2,4.5,0.9,6.6c-0.7,4.5-1.9,9-3,13.5c-0.2,1-0.7,2-1.4,2.7
		c-5.9,5.9-11.8,11.7-17.4,17.2c-5.6,1.5-10.8,2.8-16.3,4.3c0.8,3.7,1.7,6.9,2,10.2c0.3,3.2,2.3,4.9,4.5,6.7
		c4.8,3.8,9.4,7.7,14.2,11.5c4.3,3.3,8.6,6.8,13.2,9.7c4,2.5,8.4,4.5,12.6,6.6c1.4,0.7,2.7,0.8,4.1-0.5c2.1-2.1,4.6-3.9,6.8-5.9
		c1.1-1,2.1-2.2,2.8-3.5c1.2-2.4,2.1-4.9,3.3-7.4c2.2-4.6,3.9-9.4,7.1-13.4c3.7-4.6,7-9.3,11.9-12.8c6.1-4.4,11.9-9.2,16.8-15
		c0.4-0.5,1-0.8,1.6-1.3c2.7,2.2,5.3,4.3,8,6.5c0.6-0.9,1.1-1.5,1.5-2.2c4-5.3,7.8-10.8,11.9-16c2.2-2.7,4.9-5,7.3-7.6
		c2.1-2.3,4.3-4.3,7.7-4c0.4,0,0.8-0.2,1.2-0.3c5.1-0.8,10.2-2,15.3-2.3c5.6-0.4,11.2,0,16.8,0.1c0.3,0,0.6,0,0.9,0.1
		c5.3,1.3,10.3,0.9,15.1-2c2.9-1.8,6-3.3,9.3-4.4c5.6-1.8,11.4-3.2,17.4-4.8c0.3,3.7,0.6,7.2,0.9,10.9c1.4,0,2.3,0,3.2,0
		c0,96.3,0,192.6,0,289c-0.9,1.4-2,2.7-2.7,4.2c-1.1,2.5-1.9,5.2-2.8,7.8c-2.4,6.9-4.9,13.8-7.4,20.7c2.2,5.4,4.3,10.7,6.5,15.9
		c0.3,0.8,0.8,1.7,1.5,2c1.5,0.9,3.2,1.4,4.8,2.1c0,42.1,0,84.2,0,126.2c-2.6-1.7-5.2-3.4-8.1-5.2c-1.1,3-2.1,5.4-2.8,8
		c-1.8,6.8-5.5,12.6-9.5,18.2c-4.2,6.1-9.1,11.8-13.9,17.5c-1.8,2.1-3,4.2-2.8,7c0,0.7-0.2,1.4-0.3,2.1c-0.5,4.1-1.1,8.2-1.6,11.9
		c1.1,1.3,1.8,2.2,2.9,3.5c0.8,0.2,2,0.7,3.2,1c6.1,1.5,12.3,2.8,18.4,4.4c1,0.3,2.1,1,2.7,1.8c1.7,2.3,3.3,4.6,4.8,7.1
		c0.4,0.7,0.7,1.8,0.5,2.7c-0.4,2.4-1.2,4.8-1.7,7.2c-0.8,4.2-1.6,8.4-2.4,12.5c0.2,0.1,0.4,0.3,0.6,0.4c0.6-0.3,1.3-0.6,1.9-1.1
		c2.2-1.7,4.3-3.5,6.5-5.2c0.5-0.4,1.2-0.5,1.8-0.7c0,102.2,0,204.5,0,306.7c-3.4-1.5-6.8-2.9-10.1-4.4c-6.3-2.8-12.6-5.8-18.9-8.6
		c-5.2-2.3-10.4-4.7-14.5-8.7c-1.9-1.9-4.2-3.4-6.3-5.1c-1.8,0.1-3.5,0-5.3,0.3c-6.3,0.8-12.6,1.7-18.9,2.5c-4.8,0.6-9.7,1-14.5,1.6
		c-10.8,1.2-21.6,2.5-32.4,3.8c-3.3,0.4-6.7,0.7-10,1.1c-6.1,0.8-12.1,1.7-18.2,2.5c-4.5,0.5-9,0.9-13.5,1.3c-0.3,0-0.6,0.1-1,0.1
		c-4.7,0.6-9.5,1.3-14.2,1.8c-6.1,0.7-12.2,1.4-18.3,2.1c-7.7,0.9-15.4,2-23.1,2.9c-6.6,0.8-13.2,1.5-19.7,2.2c-3,0.3-6,0.6-9,1
		c-5.4,0.6-10.7,1.3-16.1,1.9c-0.9,0.1-1.7,0.3-2.6,0.4c-3.9,0.4-7.9,1.4-11.9,0.3c-4.7-1.3-9.4-2.6-14.2-3.9
		c-5.4-1.5-10.9-3-16.3-4.5c-6.4-1.8-12.8-3.6-19.3-5.4c-4.1-1.1-8.3-2.1-12.4-3.2c-4.3-1.2-8.6-2.5-12.9-3.7
		c-5-1.4-10-2.7-14.9-4.1c-2.2-0.6-4.4-1.3-6.6-1.9c-3.4-0.9-6.8-1.7-10.1-2.6c-6.9-1.9-13.8-3.8-20.7-5.7c-3.9-1.1-7.8-2-11.7-3
		c-4-1.1-7.9-2.4-11.8-3.5c-5.6-1.6-11.2-3-16.8-4.5c-4.5-1.2-9-2.5-13.5-3.7c-5.5-1.5-11-2.9-16.5-4.5c-6.6-1.8-13.2-3.8-19.8-5.6
		c-6.6-1.8-13.3-3.5-20-5.3c-7.1-1.9-14.1-4-21.2-5.9c-5.1-1.4-10.3-2.7-15.4-4.1c-4.5-1.2-9.1-2.4-13.5-3.8
		c-2.8-0.9-5.8-1.7-8.1-3.3c-8.4-5.8-16.6-11.9-24.8-17.9c-1.2-0.9-2.2-1.9-3.4-2.9c3.1-7,6.1-13.8,9-20.5c1-2.2,1.8-4.3,1.9-6.8
		c0.1-3.2,0.3-6.4,1.2-9.5c1.3-4.6,0.2-8.9-0.5-13.3c-0.8-4.7-2.2-9.3-2.8-14c-0.8-6.5-1.1-13.1-1.6-19.6c-0.1-0.8,0.2-1.7,0.4-2.6
		c1-4.2,2-8.4,3-12.6c0.9-4.1,1.8-8.2,2.7-12.3c1-4.6,2-9.1,3.2-14.1c-1-0.2-1.9-0.5-2.8-0.4c-6.9,0.2-13.7,0.5-20.6,0.8
		c-0.8,0-1.7,0-2.4-0.3c-6.3-2.6-12.6-5.2-18.8-7.8C6.4,712.6,3.2,711.3,0,709.9z"/>
</g>
</svg>
