<?xml version="1.0" encoding="utf-8"?>
<!-- Generator: Adobe Illustrator 19.1.0, SVG Export Plug-In . SVG Version: 6.00 Build 0)  -->
<svg version="1.1" baseProfile="tiny" id="レイヤー_1"
	 xmlns="http://www.w3.org/2000/svg" xmlns:xlink="http://www.w3.org/1999/xlink" x="0px" y="0px" viewBox="0 0 640 1283"
	 xml:space="preserve">
<g>
	<path d="M0.5,888c0-157.4,0-314.9,0-472.3c3.4-2.7,6.7-5.4,10.2-8.2c-0.7-0.6-0.9-1-1.2-1c-3-0.2-6-0.3-9.1-0.4c0-11.7,0-23.4,0-35
		c3.8-0.5,7.6-1,12-1.6c-2.9-4.2-5-7.6-7.4-10.8c-1.5-2-3.1-3.9-4.7-5.9c0-2.2,0-4.5,0-6.7c4.8-0.6,9.5-1.1,15.2-1.8
		c-2.5-1.8-3.9-2.9-5.5-3.9c-3.2-2.1-6.5-4.2-9.8-6.2c0-15.4,0-30.7,0-46.1c1.7,0.8,3.5,1.5,5.2,2.5c5.2,3.2,10.4,6.4,16.2,10.1
		c-1.1-12.8-2.1-24.9-3.2-37.5c12.7,5.6,24.8,11,37.5,16.7c-0.6-13.2-1.2-25.5-1.7-38.4c13.2,7.7,25.7,15,38.5,22.4
		c4-10.8,7.7-20.8,11.5-31.1c6.8,4.3,13.2,8.3,19.7,12.4c3.3-8,6.4-15.6,9.4-23.1c0.2-0.6,0.1-1.6-0.2-2.2
		c-2.4-4.7-5.1-9.3-7.2-14.1c-1.7-4-5.8-7.5-3.5-12.9c1.2-2.9,1.5-6.1,2.3-9.2c0.9-3.6,2-7.1,2.9-10.5c6.9-0.9,13.2-1.7,20.1-2.6
		c-0.5-11.3-0.9-22.5-1.4-33.6c3.9-2.8,7.7-5,11-7.9c4.5-4,9.4-4.9,15.2-3.4c4.2,1,8.6,1.1,13.3,1.6c-2.3-7.8-4.5-14.9-6.8-22.6
		c20.5,4.2,40.3,8.2,60.6,12.3c-1.9-6.1-3.7-11.9-5.7-18.3c-15.2-3.4-30.8-6.8-47.3-10.4c17-14.5,33.2-28.4,49.6-42.3
		c0.6,0.8,1.1,1.4,1.5,2c5.6,9.1,11.1,18.4,16.9,27.4c3.3,5.1,6.3,10.8,10.8,14.7c6.8,6,14.8,10.6,22.4,15.8
		c5.1,3.5,10.2,6.9,16.4,11c-4-18.6-7.8-36.2-11.8-54.8c18.9,12.3,37,24,55.8,36.2c0.4-7.3,0.7-14,1-21c-5.7,0-10.9,0-16.6,0
		c2.9-5.7,5.4-10.9,8.2-16c7.1-13,12-27.3,23.9-37.3c6-5,11.5-10.7,17.2-16c0.2,1.1,0.6,2.9,1,4.7c1.6,9,3.1,18,4.7,27
		c1,5.5,1.6,10.9,0,16.5c-2,6.7-4.6,13.5-0.8,20.7c1.8,3.4,2.8,7.3,4.5,11.7c8.9-28.5,17.6-56.1,26.6-84.8
		c7.8,22.2,15.1,43,22.9,65.3c15.8-23.4,31-45.7,46.7-68.9c1.3,24.6,2.6,48.1,3.9,72.5c22.6-9.2,45.3-4,68.4-3.3
		c1.7,6.1,3.5,12.4,5.4,19.2c20.2-7.2,40.3-14.3,61.3-21.8c-8.7,14.5-17,28.1-25.7,42.5c8.8-0.5,16.8-0.9,25.6-1.4
		c0,15.9,0,31.5,0,47.2c5.3,0,9.8,0,14.4,0c0,50.1,0,100.2,0,150.2c-14.1-2.8-28.3-5.5-43.2-8.4c8.2,11.2,15.9,21.7,23.8,32.4
		c3.4-4,6.5-7.7,9.9-11.8c1.1,2.6,1.8,4.6,2.7,6.6c2.3,5.6,4.6,11.2,6.9,16.8c0,21.8,0,43.5,0,65.3c-2.4,0-4.8,0-7.5,0
		c0.7,1.9,1.1,3.4,1.7,4.9c1.9,4.8,3.9,9.5,5.8,14.3c0,8.3,0,16.6,0,25c-3.1,2-6.2,3.9-9.1,6c-0.6,0.4-0.8,2-0.5,2.9
		c1.5,4.7,3.1,9.3,4.8,13.9c1.6,4.4,3.2,8.8,4.9,13.1c0,12.2,0,24.3,0,36.5c-12.4,3.7-24.7,7.4-37.4,11.2c1.2,4.1,2,7.8,3.4,11.3
		c0.8,1.9,2.2,4,3.9,4.9c5.1,2.8,10.6,5.2,15.9,7.7c4.7,2.2,9.4,4.2,14.2,6.2c0,200.6,0,401.3,0,601.9c-5.2-0.7-10.4-1.4-15.8-2.1
		c-4.1,8.4-8.2,16.7-12.1,25.1c-1.3,2.8-2.9,5.9-2.8,8.7c0.2,3.2,2.2,6.4,3.3,9.6c1.5,4.2,3,8.3,4.6,12.9
		c-17.9,1.6-35.4,3.1-52.7,4.6c-1.1,8.4-2.2,16.3-3.3,24.3c-30.6-10.9-60.6-21.6-90.7-32.3c-4.3,8.3-8.4,16.3-12.6,24.2
		c-2.7,5-4.5,10.5-9.9,13.9c-6.4,3.9-12.4,8.6-18.6,13c-6.8,4.8-13.6,9.6-20.6,14.4c-11-12.5-21.9-24.9-32.8-37.3
		c-1,0.1-1.8,0.1-2.5,0.3c-10.3,2.6-20.5,5.3-30.8,7.7c-0.9,0.2-2.4-0.5-3-1.3c-3.6-4.9-7-9.9-10.8-15.3c-11.5,4.3-23,8.5-34.4,12.7
		c-4.9-7.3-9.5-14.4-14.2-21.4c-3.3-5-6.8-9.9-6.7-16.4c0-3.1-1-6.2-1.5-9.3c-6.5-1.4-12.7-2.7-18.9-4c-7.9-1.6-15.7-3.2-23.6-4.7
		c-9.2-1.8-18.4-3.6-27.6-5.4c-5.6-1.1-11.1-2.4-16.7-3.5c-5.4-1.1-10.8-3.1-16.2-2.8c-8.9,0.4-17.7,2.3-26.5,3.7
		c-12.1,1.8-24.1,3.8-36.2,5.6c-8.4,1.3-16.9,2.6-25.3,3.9c-3.2,0.5-6.5,0.8-9.9,1.2c0.3-5,0.5-9.5,0.8-14.4c-1.7,0.3-2.9,0.4-4,0.7
		c-7.4,1.8-14.7,3.8-22.1,5.6c-8.1,2-16.2,3.9-24.2,5.9c-7.4,1.8-14.8,3.5-22.2,5.3c0-54.6,0-109.1,0-163.7c3.1-1.9,6-3.9,9.2-5.5
		c1.2-0.6,3.1-0.6,4.3,0c5,2.6,9.7,5.6,15.1,8.7c-0.2-1.7-0.1-2.8-0.4-3.9c-1.5-5.9-3.1-11.8-4.6-17.7c-4.3-17.3-8.6-34.6-12.9-51.9
		c-0.7-3-2-6.4-1.4-9.3c1.4-6.5,3.8-12.7,5.8-19.1c-0.9-2.9-1.8-5.9-2.6-8.8C9.5,915.7,6,903.5,2.5,891.3
		C2.1,890.1,1.2,889.1,0.5,888z"/>
	<path d="M88.5,232.8c-12.3-4.5-24.3-8.9-36.3-13.3c-1.8-0.7-3.5-1.6-5.3-1.9c-7.1-1.2-9-7.5-12.3-12.4c-5-7.3-9.9-14.8-14.8-22.2
		c6.5-11.9,12.9-23.5,19.4-35.5c6.1,4.2,11.8,8.2,17.6,12.2c5.3,3.7,10.4,7.8,16,10.8c4,2.2,8.6,3.1,13.1,4.3
		c9.2,2.6,18.4,5,28.6,7.7C105.7,199.3,97.1,215.9,88.5,232.8z"/>
	<path d="M229,24.7c21.5-1.2,43-2.5,65-3.7c4.5,12.8,9,25.6,13.7,39c-27.7-6-55-11.9-82.1-17.8C226.8,36.1,227.9,30.6,229,24.7z"/>
	<path d="M81.2,87.3c0.7,17.4,1.4,35,2.1,52.6c-0.3,0.1-0.7,0.2-1,0.4c-16-20.4-31.9-40.8-47.9-61.3c0.3-0.4,0.6-0.9,0.9-1.3
		C50.4,80.9,65.4,84,81.2,87.3z"/>
</g>
</svg>
