<?xml version="1.0" encoding="utf-8"?>
<!-- Generator: Adobe Illustrator 19.1.0, SVG Export Plug-In . SVG Version: 6.00 Build 0)  -->
<svg version="1.1" baseProfile="tiny" id="レイヤー_1"
	 xmlns="http://www.w3.org/2000/svg" xmlns:xlink="http://www.w3.org/1999/xlink" x="0px" y="0px" viewBox="0 0 347 222"
	 xml:space="preserve">
<g>
	<path d="M211.9,0c1.3,0,2.7,0,4,0c4.9,4.4,9.8,8.9,14.6,13.2c0.9,7.4,1.7,14.7,2.6,22.2c2.2-0.5,3.8-0.9,5.3-1.4
		c34.4-9.4,68.7-18.9,103.1-28.3c1.7-0.5,3.6-0.5,5.4-0.8c0,0.3,0,0.7,0,1c-0.6,1.6-1.5,3.2-1.9,4.9c-9.9,36.6-19.7,73.3-29.6,109.9
		c-0.4,1.6-0.9,3.1-1.4,4.5c-3.1,0.8-5.8,1.5-8.8,2.2c-0.7,8.1-1.3,15.9-2,23.9c-79.2,23.3-158,46.4-237,69.6c0-12.3,0-23.9,0-35.8
		c-5.1,0.5-10,1-15.3,1.5c-4.4-30.9-8.6-61.3-13-91.9c-6.5-0.4-12.7-0.8-18.6-1.2c-4.4-3.2-8.5-6.2-12.8-9.4
		C4.4,67.8,2.2,51.2,0,34.5c1.2-0.3,1.8-0.6,2.5-0.7c28.9-4.6,57.9-9.2,86.8-13.8c36.5-5.8,73-11.6,109.5-17.5
		C203.2,1.9,207.5,0.9,211.9,0z"/>
</g>
</svg>
