<?xml version="1.0" encoding="utf-8"?>
<!-- Generator: Adobe Illustrator 19.1.0, SVG Export Plug-In . SVG Version: 6.00 Build 0)  -->
<svg version="1.1" baseProfile="tiny" id="レイヤー_1"
	 xmlns="http://www.w3.org/2000/svg" xmlns:xlink="http://www.w3.org/1999/xlink" x="0px" y="0px" viewBox="0 0 640 1145"
	 xml:space="preserve">
<g>
	<path d="M0.5,245.8c0-7,0-14.1,0-21.1c0.6-0.4,1.3-0.8,1.8-1.3c2.8-3.7,5.6-7.4,8.4-11.2c1.3-1.8,2.7-3.5,2.7-5.9
		c0.1-3.1,0.4-6.2,0.6-9.3c0.3-3,0.6-6,1-8.9c8.3-2,16.4-3.9,24.3-5.8c3.1-5.3,6.1-10.5,9.2-15.7c0.5-0.9,0.3-1.5-0.2-2.4
		c-2.4-4.1-4.6-8.3-6.8-12.5c-0.4-0.7-0.7-1.8-0.4-2.4c1.7-4.2,3.5-8.3,5.3-12.4c1.6-3.6,3.1-7.1,2.5-11.2c-0.4-2.4-0.4-4.9-0.6-7.4
		c-0.1-1.4-0.2-2.9-0.3-4.6c8.5-2.9,16.9-5.7,25.4-8.6c0.4-0.5,1-1.1,1.3-1.7c3.8-7.1,7.5-14.2,11.3-21.3c0.5-0.9,1.2-1.8,2-2.2
		c1.2-0.6,2.6-0.8,3.8-1.2c3-0.9,6-1.7,8.9-2.6c4.1-1.2,8.2-2.4,12.3-3.6c2.8-0.8,5.6-1.7,8.4-2.5c2.6-0.8,5.1-1.6,7.7-2.2
		c0.8-0.2,1.8,0,2.5,0.4c5.1,2.7,10.2,5.3,15.2,8.1c3.1,1.7,6.2,2.9,9.9,2.4c5.9-0.7,11.9-1,17.9-1.5c1.6-0.2,2.8,0.1,4.1,1.3
		c6,5.3,12.1,10.6,18.2,15.8c1.5,1.3,3.1,2.5,4.8,3.6c4.4,2.8,8.9,5.4,13.4,8c1,0.6,2.4,1,3.6,1c4.6,0,9.3-0.1,13.9-0.3
		c0.8,0,1.7-0.1,2.7-0.2c0.2-2.4,0.3-4.5,0.5-6.6c0.9-8.4,2.1-16.8,2.6-25.3c0.2-3.9,1.4-6.8,4.2-9.4c0.2-0.2,0.4-0.3,0.5-0.5
		c3.5-4,7.1-8.1,10.9-12.4c-0.4-2.2-0.8-4.5-1.2-6.8c-0.7-3.8-1.4-7.7-1.9-11.5c-0.2-1.3-0.7-2.7,0.3-3.9c1.4-0.3,2.7-0.5,4-0.8
		c4.3-0.9,8.6-1.8,12.9-2.7c3.7-0.7,7.3-1.5,11-2.2c2.6-0.5,5.3-1.2,7.9-1.7c2.2-0.4,4-1.1,5.6-2.8c5-5.2,10.1-10.4,15.1-15.6
		c1.1-1.2,2.1-2.5,3.1-3.8c1.1,0,2.2,0,3.4,0c0.4,0.3,0.8,0.8,1.3,0.9c2.2,0.4,4.4,0.7,6.6,1c5.5,0.8,11,1.7,16.6,2.5
		c2.3,0.4,4.6,0.8,6.8,1.1c3.4,0.5,6.7,1.3,10.1,1.4c6.3,0.2,12.6,0.1,19,0.1c1.2,0,2.4,0,3.5,0c4.4,6.3,8.6,12.4,12.9,18.5
		c0.6,0.8,1.1,1.7,1.4,2.1c9.3-1.4,17.7-2.8,26-4.1c0.5,0.8,0.9,1.2,1.1,1.7c1.4,3.9,2.8,7.9,4.1,11.9c1.5,4.4,3,8.8,4.5,13.2
		c0.9,2.6,2,5.2,2.6,7.9c1.2,5,2.2,10.1,3.2,15.1c0.4,1.7,0.8,3.4,1.1,5.1c0.6,2.7,1.2,5.4,1.7,8.1c0.1,0.8,0.1,1.8-0.2,2.6
		c-1.4,3.9-2.9,7.8-4.4,11.7c-1.2,3.1-2.3,6.3-3.3,9.2c1.8,5.7,3.4,11.2,5.1,16.6c7.3,0,14.6,0,22.3,0c-0.9-8.3-2.3-16.2-3.4-24.4
		c0.4-0.5,1-1.1,1.5-1.6c4.5-4.2,9-8.4,13.5-12.6c3.1-2.9,6.2-5.5,10.5-6.6c4.2-1.1,8.3-3,12.4-4.5c6-2.2,12.2-4.2,18.1-6.5
		c2.3-0.9,4.5-0.9,6.7-0.3c2.9,0.8,5.7,1.8,8.6,2.6c6.6,1.8,13.2,3.6,19.8,5.4c1.8,0.5,3.5,1.2,5,1.8c4.4,9.8,8.7,19.3,12.9,28.7
		c0.3,0.8,0.6,1.7,0.5,2.5c-0.7,4.4-1.4,8.8-2.2,13.2c-0.8,4.8-1.8,9.5-2.6,14.3c-0.8,4.6-1.4,9.3-2.1,13.7
		c-7.8,6.8-15.4,13.4-23.4,20.3c4.8,2,9.4,2.6,14.2,4c6.4-6.6,12.8-13.3,19.3-20c12.5,2.1,24.6,4.1,36.4,6.1
		c5.3,7.9,10.4,15.4,15.4,22.8c0,0.5,0.1,0.9,0,1.2c-1.8,4.8-3.6,9.6-5.4,14.4c-0.9,2.4-1.9,4.8-2.3,7.3c-0.6,5-0.9,10-1.2,15.1
		c-0.4,6.9-0.8,13.7-1.2,20.6c-0.1,1.2-0.4,2.6-1,3.6c-3.1,5.1-6.4,10.2-9.5,15.3c-2.4,3.9-4.7,7.8-7.3,12c3.1,0.4,6,0.7,9,1.1
		c0,0.9,0.1,1.8,0.1,2.6c0.1,3.5,0.2,7,0.3,10.6c0,1.6,0.6,2.7,1.9,3.7c2.9,2.1,5.9,4.2,8.7,6.5c1.2,1,2.3,0.9,3.5,0.3
		c7.4-3.8,14.7-7.7,22.1-11.4c1.7-0.9,3.6-1.5,5.4-2.2c0,238.6,0,477.1,0,715.7c-1.6-1-3.3-2-4.9-3.1c-2.2-1.5-4.3-3.1-6.7-4.8
		c-4.2,4.7-8.3,9.2-12.2,13.6c-2.2,7.5-3,15.3-5.3,22.9c-4.4-0.6-8.5-1.1-12.6-1.6c-0.1,0-0.1-0.1-0.2-0.1c-2-0.3-3.9-0.5-5.7-0.7
		c-0.8,1-1.3,1.7-1.8,2.4c-2.9,4.1-5.8,8.1-8.7,12.2c-1,1.5-2.4,2.2-4.1,2.4c-5.8,0.8-11.6,1.5-17.3,2.4c-1,0.1-1.9,0.6-2.9,0.9
		c0.2,7.1,2.4,13.7,2.5,20.8c-25.7,1.2-51.2,2.3-76.8,3.4c-8.5,23.7-16.9,47.2-25.3,70.7c-95.2,0.4-190,0.8-285.1,1.3
		c-3-13.4-5-26.8-8.1-40c-2.2,0.3-4.1,0.5-6,0.7c-3.9,0.4-7.8,0.8-11.7,1.2c-7.1,0.9-14.1,1.8-21.1,2.7c-3,0.4-6,0.8-9,1.1
		c-4.3,0.4-8.6,0.8-12.8,1.3c-0.6,0.1-1.1,0.3-1.6,0.4c-2.7,0.2-5.3,0.4-8.1,0.6c-0.9-8.3-1.8-16.2-2.6-23.9
		c-1.8-0.5-3.3-0.9-4.7-1.3c-3.6-0.8-7.2-1.5-10.7-2.5c-2.6-0.8-5.1-0.8-7.8,0c-1.9,0.6-3.9,0.9-5.8,1.3c-2.4,0.5-4.8,1.1-7.2,1.6
		c-2.7,0.6-5.4,1.1-8.3,1.7c-6-9.6-11.9-19-17.8-28.5c-0.7,0-1.3,0-1.9,0.1c-3.9,0.8-7.8,1.5-11.7,2.3c-5.4,1.2-10.8,2.5-16.2,3.7
		c0-199,0-398.1,0-597.1c0.7-0.1,1.4-0.1,2-0.4c1.7-0.8,3.4-1.7,5.1-2.5c5.7-2.8,11.5-5.6,17.5-8.5c-0.5-6-0.9-12-1.4-17.9
		c16.6-8.1,32.8-16,49.3-24.2c-0.5-2.9-1.1-5.9-1.6-8.8c-0.2-0.9-0.5-1.8-0.9-3c-6.9,4.5-13.6,8.7-20.5,13.2c-0.4-1.1-0.8-1.8-1-2.6
		c-0.9-3.3-1.6-6.6-2.5-9.9c-0.9-3.5-1.8-6.9-2.7-10.4c-0.7-2.5-1.4-5-2.1-7.4c-12.2-3.3-24.1-6.5-36.2-9.7c0.6-0.9,0.9-1.4,1.4-1.9
		c6.9-8,13.7-15.9,20.7-23.8c1.1-1.3,1.7-2.5,1.5-4.3c-0.5-4.4-0.8-8.9-1.1-13.3c-0.4-5.6-0.8-11.1-1.2-16.7c0-0.2-0.1-0.5-0.1-0.7
		c-0.4-4.4-0.9-8.9-1.3-13.3c1.6-0.7,8.1-0.1,14.7,0.8c4.9,0.7,9.9,1.2,15.4,1.6c-3.3-7.6-6.4-14.5-9.9-21.5
		c-10.5,0.8-20.9,1.5-31.2,2.3c-0.6-1.6-1-2.9-1.4-4.2c-1.3-4-2.5-8-3.7-12.1c-1.1-3.6-2.3-7.2-3.4-10.9c-1.4-4.6-2.7-9.2-4.1-13.9
		C1.6,246.1,0.9,246,0.5,245.8z"/>
</g>
</svg>
