<?xml version="1.0" encoding="utf-8"?>
<!-- Generator: Adobe Illustrator 19.1.0, SVG Export Plug-In . SVG Version: 6.00 Build 0)  -->
<svg version="1.1" id="レイヤー_1" xmlns="http://www.w3.org/2000/svg" xmlns:xlink="http://www.w3.org/1999/xlink" x="0px"
	 y="0px" viewBox="0 0 609 566" enable-background="new 0 0 609 566" xml:space="preserve">
<path d="M123,0l263,0L274.9,115.6h71.7l-21,32.9l40.2,0l39.2-70.6l90.3,65.6l78.7,0.4l-8.7,82h43.1l-25.1,99.7l-83.7,1.3
	c0,0-8.1,11.6-12.6,18.1c14.2,0,27.3,0,41,0c-7.7,26.6-15.3,52.7-23,79.1c-47.9,0-95.6,0-143.7,0c2.5,11.1,7.2,32.4,7.2,32.4l-1,9.4
	l-44,99.1l-260,0.5l13-43.9H45.4l18-51.7h-13v-81h27.3v-30.1H35.2l11.3-29L25.8,225.1h36.9L73,186H0c0,0,0-0.7,0-1
	C0.7,184.3,123,0,123,0z"/>
</svg>
