<?xml version="1.0" encoding="utf-8"?>
<!-- Generator: Adobe Illustrator 19.1.0, SVG Export Plug-In . SVG Version: 6.00 Build 0)  -->
<svg version="1.1" baseProfile="tiny" id="レイヤー_1"
	 xmlns="http://www.w3.org/2000/svg" xmlns:xlink="http://www.w3.org/1999/xlink" x="0px" y="0px" viewBox="0 0 1113 627"
	 xml:space="preserve">
<g>
	<path d="M1114.5,375.5c0,0.3,0,0.7,0,1c-0.6,1.5-1.3,3.1-1.7,4.6c-13.5,50.1-26.9,100.3-40.3,150.4c-2.4,8.8-4.8,17.6-7.2,26.7
		c-30.4-7.2-60.4-14.2-90.8-21.4c0.2,3.1,0.3,5.3,0.4,8.1c-10.9-2.1-21.3-4.1-31.8-6.2c-8.4,8-16.7,16-25.8,24.8
		c-1.5-12.2-2.8-23-4.2-34.1c-6.1-2.9-12.1-5.6-18.1-8.6c-1.4-0.7-2.5-1.9-3.8-2.9c0.1-0.3,0.3-0.5,0.4-0.8
		c-6.1-1.4-12.2-2.8-18.5-4.2c-2.3,7.9-4.4,15.1-6.5,22.5c-18.3-1.3-36.1-2.5-53.9-3.7c-35.1,23.6-68,50.5-106.2,69.7
		c-26.1-20.4-52.4-40.8-79-61.5c-20.6,29.5-41,58.6-61.8,88.2c-23.7-27.3-46.9-54-70-80.7c-65.9,0-131.4,0-196.9,0
		c0,0.2-0.1,0.5-0.1,0.7c7,2.2,14,4.5,22,7c-12.1,8-23.3,15.4-34.5,22.9c0.4,13.1,0.9,25.9,1.3,39.7c-10.8-8.4-20.7-16.1-30.5-23.7
		c-11.2,3.9-22.1,7.6-33.6,11.6c1.3-7.2,2.4-13.6,3.7-20.9c-23.3,14-45.5,27.2-67.9,40.6c-34.8-57.3-69.2-113.8-104-171.2
		c20.9-0.4,40.7-0.8,61.1-1.2c-1.9-7.5-3.7-14.3-5.6-22c7,2,13.1,3.7,19.7,5.6c0.7-6.5,1.4-12.7,2.1-18.7c4.2,0,7.9,0,11.9,0
		c-6.5-24.8-12.8-49.3-19.3-74c3.6-0.7,6.4-1.3,9.2-1.8c0-0.3,0-0.6,0.1-0.9c-14.9-2.8-29.8-5.7-45.2-8.6
		c8.2-31.1,16.3-61.7,24.4-92.8c9.6,5.1,18.4,9.9,28.1,15.1c-1.9-8.9-3.7-16.9-5.5-25.4c4.3,0.3,7.7,0.6,11.7,0.9
		c-1.2-4.1-2.3-7.5-3.4-11.3c-18.1,1-35.8,1.9-53.4,2.8C82.2,203.9,2.6,6.6,2.7,2.1c113,33.3,225.7,66.7,339.3,100.1
		c-1.1-5.4-1.9-9.5-2.9-14.4c54.8,18,108.7,35.7,162.3,53.3c7.2-3.6,14-7,21.2-10.6c2.6,6.7,5,13.1,7.5,19.5c5.7,1,11.2,2,17,3.1
		c12.1-39.3,24-78.1,36.1-117.5c53.6,19.7,106.5,39.2,160.3,59c-2.1-4.7-3.7-8.4-5.6-12.6c47-25.8,93.7-51.5,140.7-77.4
		c27.5,43.7,54.6,86.9,82,130.4c-6.3,1.2-11.7,2.2-17.6,3.2c1,1.6,1.6,2.6,2.3,3.7c10.4-2.1,20.6-4.1,31.1-6.2
		c7.2,19.6,14.3,38.7,21.5,58.4c-7.4,1-14.2,1.9-21.6,2.9c1.8,35.5,3.5,70.7,5.3,106.5c10.6-4.2,20.9-8.1,31.4-12.2
		c6.4,27.7,12.7,54.7,19,81.7c1.9,0.1,3.2,0.2,4.6,0.3c19.5,0.4,39,0.8,58.5,1.3C1101.5,374.8,1108,375.2,1114.5,375.5z"/>
</g>
</svg>
