<?xml version="1.0" encoding="utf-8"?>
<!-- Generator: Adobe Illustrator 19.1.0, SVG Export Plug-In . SVG Version: 6.00 Build 0)  -->
<svg version="1.1" baseProfile="tiny" id="レイヤー_1"
	 xmlns="http://www.w3.org/2000/svg" xmlns:xlink="http://www.w3.org/1999/xlink" x="0px" y="0px" viewBox="0 0 353 227"
	 xml:space="preserve">
<g>
	<path d="M156.7,32.2c1,1.9,2,3.6,3.1,5.6c0.8-2.2,1.4-3.9,2.1-5.8c40.6-1.7,81.2-3.4,122.2-5.1c4.4,10.6,7.2,21.7,11.5,32.7
		c-4.2,1.2-7.9,2.4-12.8,3.8c3,1.2,5.2,2.1,7.5,3c5,7.5,60.3,111.4,61.1,115.1c-16.6,0-33.2,0-50.3,0c3.9,14.5,7.6,28.5,11.6,43.2
		c-99.8-15.6-198.9-31.1-298.7-46.6c6-13.5,11.9-26.5,17.8-39.6c-1.7-2.7-3.4-5.3-5.2-8c1.9-1.2,3.5-2.3,5.8-3.8
		c-3.8-1.2-6.9-2.2-10.4-3.4C14.7,82.4,7.3,41.5,0,0.7c0.3-0.3,0.4-0.5,0.5-0.6C0.7,0.1,0.8,0,1,0c51.2,10.5,102.4,20.9,153.6,31.4
		C155.3,31.6,156.1,31.9,156.7,32.2z"/>
</g>
</svg>
