<?xml version="1.0" encoding="utf-8"?>
<!-- Generator: Adobe Illustrator 19.1.0, SVG Export Plug-In . SVG Version: 6.00 Build 0)  -->
<svg version="1.1" baseProfile="tiny" id="レイヤー_1"
	 xmlns="http://www.w3.org/2000/svg" xmlns:xlink="http://www.w3.org/1999/xlink" x="0px" y="0px" viewBox="0 0 311 202"
	 xml:space="preserve">
<g>
	<path d="M0,78c0-2,0-4,0-6C35.7,50.9,71.4,29.9,107.1,8.8C111.8,6,116.4,2.9,121,0c0.3,0,0.7,0,1,0c2.7,9.2,5.4,18.4,8.3,28.3
		c11.6-4.5,22.9-8.7,35-13.4c0.7,8.4,1.4,15.7,2.1,23.7c3.4-0.2,6.1-0.3,8.9-0.5c0.3-4.6,0.5-8.3,0.8-12.7
		c42.6-6.9,84.9-13.8,127.6-20.7C306.9,9.1,309,13,311,17c0,43,0,86,0,129c-2.9-0.4-5.8-0.7-9.2-1.2c1,13.3,4.8,25.9,5.8,38.9
		c-1.8,0.3-2.8,0.5-3.8,0.6c-16.1,1.3-32.2,2.6-48.2,3.7c-26.4,1.9-52.8,3.5-79.2,5.4c-28.4,2-56.7,4-85.1,6
		c-9.4,0.7-18.9,1.7-28.3,2.5c-3.7,0-7.3,0-11,0c-0.1-5.2-0.2-10.4-0.3-16.5c-5.3,2.6-9.5,4.6-14.6,7.1c-0.2-3.1-0.4-5.2-0.4-7.3
		c0.6-24.8,1.3-49.5,1.9-74.3c0.1-3.3,0.5-6.7-2.8-9.3c-6.6,2-13.2,4-19.9,6c-2.3-2.3-4.1-4.4-6.2-6.3c-4.2-3.7-6.5-8.2-7.2-13.8
		C2,84.4,0.8,81.2,0,78z"/>
</g>
</svg>
