<?xml version="1.0" encoding="utf-8"?>
<!-- Generator: Adobe Illustrator 19.1.0, SVG Export Plug-In . SVG Version: 6.00 Build 0)  -->
<svg version="1.1" baseProfile="tiny" id="レイヤー_1"
	 xmlns="http://www.w3.org/2000/svg" xmlns:xlink="http://www.w3.org/1999/xlink" x="0px" y="0px" viewBox="0 0 137 57"
	 xml:space="preserve">
<g>
	<polygon fill="#FFFFFF" points="0,7.6 46.5,9.1 47.2,16.5 51.3,16.5 50.6,13.2 84.9,5.7 85.7,9.4 99.3,9.6 98.8,4.9 137,1.1 
		134.6,47.7 101.5,51.4 101,46.5 91.3,46.5 91.7,48.6 57.8,56.5 56,50.8 47.6,50.1 47.6,54.1 10.1,56.4 	"/>
	<polygon points="44.4,49.5 12,50.3 5.3,11 43.5,12.4 	"/>
	<rect x="56" y="12.6" transform="matrix(0.9884 -0.1517 0.1517 0.9884 -3.7377 11.079)" width="29.6" height="34.9"/>
	
		<rect x="82.3" y="13.2" transform="matrix(0.9984 -5.618330e-02 5.618330e-02 0.9984 -1.4285 5.3805)" width="25.3" height="29.8"/>
	<polygon points="131.5,45.2 103.3,46.9 101.1,7.3 132.6,5.6 	"/>
	<polygon points="64.8,46.2 32.3,47 32,22.2 64.4,21.5 	"/>
	<polygon fill="#FFFFFF" points="60.6,18.1 80.1,17.8 83.2,41.1 64,44 	"/>
	<g>
		<path fill="#FF0000" d="M37.1,23.6c-2.6,1.7-4.5,3-7.1,4.1c-2,7.5-3.8,13.1-11.8,16.9l-0.1-0.2c6.1-6.5,6.7-16.2,6.7-16.6
			c0-1.4,0-1.8-1.9-2.4c1-0.7,1.7-1,3-1c1.8,0.1,3.2,0.8,3.8,1.2c1.8-2.9,2.2-4,2.2-4.1c0-0.2-0.1-0.2-0.2-0.3
			c-0.4,0-8.7,1.4-9.8,1.7c-0.9,0.3-2.1,0.7-2.6,0.9c-0.6,0.3-0.9,0.5-1.4,0.5c-1.2,0-3.2-2.8-3.2-4.7c0-0.7,0.2-1.2,0.8-2.7
			c0.7,1.4,1.5,2.2,2.9,2.2c1.9,0.1,14-0.3,14.9-0.7c0.3-0.1,0.6-0.3,1.2-0.9c0.3-0.3,0.5-0.4,0.8-0.4c0.9,0,4.7,3.3,4.7,5
			C40,23.1,39.1,23.4,37.1,23.6z"/>
	</g>
	<g>
		<path fill="#FFFFFF" d="M96.8,37.3L92.9,37l0.8-9.5c-0.3,0.2-3.4,1.7-5.3,2.3c-0.3-0.8-1-2.5-2.1-4c2.8-0.3,10-3.8,13-8.1l2.9,2.9
			c0.2,0.2,0.2,0.3,0.2,0.4c0,0.3-0.3,0.3-0.7,0.3c-1,1.1-1.9,2.1-4,3.6L96.8,37.3z"/>
	</g>
	<g>
		<path d="M71.6,33c0.4,0.1,1.8,0.5,2.3,0.5c0.3-0.1,0.4-0.2,0.6-1.4c0.4-2,0.2-4.2,0-5.9c-0.7,0.2-1.4,0.4-2.4,0.6
			c-0.4,3.5-1,8.8-7,12l-0.1-0.1c2.7-3,3.9-7.5,4.2-10.9c-0.9,0.4-1.6,0.6-2.4,1.3c-0.3,0.3-0.4,0.3-0.6,0.4
			c-0.7,0.1-2.2-1.3-2.5-2.6c-0.1-0.6,0-1,0.1-1.3c0.5,1.1,1.7,1.1,2.7,0.9c0.5-0.1,0.6-0.1,2.7-0.7c0-1,0-2.2-0.1-2.6
			c-0.2-0.8-0.7-1-1.6-1.1c0.6-0.9,1.9-1.3,2.1-1.3c1.1-0.2,3.4,0.5,3.5,1.3c0,0.2,0,0.4-0.3,0.9c-0.3,0.5-0.3,1-0.4,2
			c1.5-0.4,1.6-0.6,2-1c0.5-0.7,0.6-0.8,0.8-0.8c0.3-0.1,3.1,1.2,3.2,1.7c0,0.2,0,0.4-0.4,0.9c-0.2,0.3-0.2,0.5-0.2,1.3
			c0,4.6,0.1,6.9-1.1,8.5c-0.7,1-1.9,1.4-2.2,1.4c-0.8,0.1-1-0.1-1-0.4c0-0.2-0.1-1-0.1-1.1C73,34.5,71.9,33.5,71.6,33L71.6,33z"/>
	</g>
	<g>
		<path fill="#FFFFFF" d="M123.9,22.5c-0.2,0.1-0.3,0.3-0.5,0.9c-1.8,7-4.3,11.9-13.4,14.6l-0.1-0.1c6.7-4.9,8.7-10.1,9.5-16.1
			c-1,0.3-5.3,1.3-6.2,1.6c-0.3,0.1-2.1,0.7-2.7,1.2c-0.4,0.3-0.5,0.4-0.8,0.4c-0.6,0-2.9-1.7-3-3.6c-0.1-0.8,0.1-1.4,0.4-2.1
			c0.4,0.8,1,1.7,3.4,1.5c0.6-0.1,7.8-1,8.7-1.4c0.5-0.2,1-0.7,1.2-0.9c0.2-0.1,0.3-0.2,0.5-0.2c0.7-0.1,4,2.1,4,3.1
			C124.9,21.8,124.8,21.8,123.9,22.5z M125.6,20c-0.6,0-0.8-0.2-1.7-1.3c-0.2-0.2-0.9-1-2.3-1.9c2-0.3,4.7,0.3,4.9,2
			C126.6,19.5,126.1,19.9,125.6,20z M127.5,17.8c-0.6,0-0.8-0.2-1.8-1.1c-0.7-0.7-1.7-1.3-2.6-1.7c0.7-0.1,5-0.5,5.2,1.8
			C128.3,17.5,127.9,17.8,127.5,17.8z"/>
	</g>
	<g>
		<path fill="#FFFFFF" d="M56.3,30.9l0.3,4.5l-15.5,0.9l-0.3-4.5L56.3,30.9z"/>
	</g>
</g>
</svg>
