<?xml version="1.0" encoding="utf-8"?>
<!-- Generator: Adobe Illustrator 19.1.0, SVG Export Plug-In . SVG Version: 6.00 Build 0)  -->
<svg version="1.1" baseProfile="tiny" id="レイヤー_1"
	 xmlns="http://www.w3.org/2000/svg" xmlns:xlink="http://www.w3.org/1999/xlink" x="0px" y="0px" viewBox="0 0 160 58"
	 xml:space="preserve">
<g>
	<polygon fill="#FFFFFF" points="1,4 12.5,57.8 58.3,55.9 58.4,50.2 61.1,48.5 91.7,50.9 92.9,46.9 102.4,45.2 102.8,49.2 
		138.8,45.7 138.6,42 157.1,39.8 159,4.6 134.2,7.4 134.9,0 99.4,2.6 99.5,5.6 93.6,6.1 93.8,3.6 59.3,2.3 59.3,8.4 57.5,8.8 
		57.6,3.7 	"/>
	<polygon points="56.3,53.1 14.5,54.3 6.9,6.9 54.9,6 	"/>
	<path d="M75.7,40.3L51.2,46c-0.5,0.1-0.9-0.2-1-0.6l-6.5-27.8c-0.1-0.5,0.2-0.9,0.6-1l24.5-5.8c0.5-0.1,0.9,0.2,1,0.6l6.5,27.8
		C76.4,39.7,76.1,40.2,75.7,40.3z"/>
	<path d="M88.7,46.5l-27.9-1.1c-0.6,0-1-0.5-1-1.1L61.2,7c0-0.6,0.5-1,1.1-1l27.9,1.1c0.6,0,1,0.5,1,1.1l-1.4,37.3
		C89.8,46.1,89.3,46.5,88.7,46.5z"/>
	<path d="M112.7,41.4l-27.8,2.1c-0.5,0-1-0.4-1-0.9l-2.5-32c0-0.5,0.4-1,0.9-1l27.8-2.1c0.5,0,1,0.4,1,0.9l2.5,32
		C113.7,40.9,113.3,41.4,112.7,41.4z"/>
	<path d="M133.8,44.1l-27.6,2.1c-0.6,0-1.1-0.4-1.1-1l-3-38.7c0-0.6,0.4-1.1,1-1.1l27.6-2.1c0.6,0,1.1,0.4,1.1,1l3,38.7
		C134.8,43.6,134.3,44.1,133.8,44.1z"/>
	<path d="M153.1,37.6l-28.8,2.2c-0.2,0-0.5-0.2-0.5-0.4l-2.2-28.9c0-0.2,0.2-0.5,0.4-0.5l31.8-1.6c0.2,0,0.5,0.2,0.5,0.4l-0.7,28.3
		C153.6,37.4,153.4,37.6,153.1,37.6z"/>
	<polygon fill="#FFFFFF" points="86.9,13.3 89.8,37.8 107.9,34.7 106.8,11.7 	"/>
	<g>
		<path fill="#FF0000" d="M44.9,17.6l0.1,6.5l-8,0.1l0.1,3.1l11.3-0.2l0.2,6.5l-11.1,0.2L38,44.5l-7.3,0.3l-0.4-10.7l-11.7,0.2
			l-0.2-6.6l11.6-0.2l-0.1-3.1l-8.3,0.1l-0.2-6.6l8.2-0.1l-0.2-5.2l7.2,0.3c0.6,0,1,0,1,0.5c0,0.1,0,0.3-0.8,1l0.2,3.3L44.9,17.6z"
			/>
	</g>
	<g>
		<path fill="#FFFFFF" d="M117.1,21.8c0.7,0.4,1.2,0.7,2.5,1.6c0.8-1,1.1-1.7,1.3-2.2l-4-0.4c-1.7,1.9-3.4,3-4,3.4
			c-0.9-1-1.8-1.8-2.6-2.5c2.7-1.6,5.5-4.5,6.4-6.6l3.4,1.3c0.1,0,0.3,0.2,0.3,0.3c0,0.2-0.3,0.3-0.7,0.3c-0.2,0.3-0.3,0.5-0.5,0.7
			l3.4,0.3c0.5,0,0.9,0,1.4-0.1l1.5,1.5c-0.1,0.2-0.2,0.3-0.5,0.9c-0.8,1.7-1.6,3.3-2.9,5c0.9,0.8,1.4,1.3,1.8,1.7
			c-1,0.8-2.1,2.1-2.5,2.7c-0.3-0.3-0.7-0.9-1.7-1.8c-2.1,1.8-4.2,2.7-6,3.4c-0.6-1.2-1.5-2.3-2.3-3.1c3-0.5,5.2-2.2,5.6-2.6
			c-1.2-0.9-1.9-1.4-2.4-1.6L117.1,21.8z"/>
	</g>
	<g>
		<path d="M101.8,17c0.6,0,0.9-0.2,1.1-0.4l1.9,1.5c-0.1,0.4-0.2,0.5-0.4,1.4c-0.1,0.5-0.8,3.1-0.9,3.6c-2.1,7.7-6.1,10.7-7.3,11.6
			c-1-1.4-2.4-2.5-2.8-2.8c5-3,6.6-8.2,7.3-11.2l-4.4,0.3c-0.9,2-2,3.9-3.3,5.5c-1.4-1.5-2.2-2.1-2.7-2.5c2.9-3.5,4.6-7.6,5-10.2
			l3.2,1.3c0.1,0.1,0.3,0.1,0.3,0.3c0,0.3-0.3,0.4-0.5,0.4c-0.2,0.6-0.3,0.9-0.4,1.2L101.8,17z"/>
	</g>
	<g>
		<path fill="#FFFFFF" d="M65,28.7c-0.2,0.2-0.3,0.3-0.6,0.9c-1.5,2.3-1.8,2.6-2.3,3.1l-0.1,0c0.2-0.8,0.3-2.9,0.3-3.6
			c-0.7,0.5-1.9,1.2-2.6,1.6c1.6,3.3,1.9,3.8,2.7,5.4c0.4,0.7,0.5,1,0.6,1.4c0.1,0.6-0.2,1.1-0.7,1.2c-0.6,0.1-1.8-0.4-2.2-1.8
			c-0.4-1.7-1.2-3.4-2-5c-0.5,0.3-1.1,0.7-2.1,1.7c-0.3,0.3-0.4,0.4-0.7,0.5c-0.7,0.1-2-1.2-2.2-2c0-0.2,0-0.7,0-0.9
			c0.2,0.2,0.6,0.6,1.3,0.5c0.5-0.1,1.6-0.6,2.9-1.3c-1.1-2.1-1.4-2.5-2.8-2.4c0.2-0.3,0.6-1,1.7-1.2c0.8-0.1,1.6-0.1,1.8,0
			c0.3,0,0.4,0.4,0.4,0.6c0,0.1,0.1,0.8,0.1,0.9c0.1,0.4,0.4,1,0.5,1.3c0.5-0.2,2.7-1.3,2.9-1.5c0.2-0.2,0.4-0.5,0.6-0.9
			c0-0.1,0.1-0.2,0.3-0.2c0.4-0.1,2,0.6,2.1,0.7c0.5,0.2,0.7,0.3,0.7,0.6C65.7,28,65.6,28.1,65,28.7z"/>
	</g>
	<g>
		<path fill="#FFFFFF" d="M144.4,24.7c0,0-1.3,0-1.5,0c-1,0-3.2,0.2-4.4,0.3c-2.1,0.2-4.9,0.7-5.7,0.9c-0.2,0.1-1.2,0.4-1.3,0.4
			c-0.9,0.1-2.1-1.7-2.2-2.6c0-0.5,0.1-1.1,0.6-2.1c0.5,1.2,1,1.4,3.5,1.2c0.4,0,8-0.9,8.3-0.9c0.2-0.1,0.6-0.3,0.9-0.3
			c1-0.1,2.9,0.2,3,1.6C145.6,23.7,145.5,24.6,144.4,24.7z"/>
	</g>
	<g>
		<path fill="#FFFFFF" d="M80.8,21.8c0.4,0.1,1,0.2,1.4,0l1.5,2c-0.3,0.4-1.3,2.1-1.5,2.5c-2.1,3.5-3.7,5.1-6.5,6.8
			c-0.7,0.5-2,1.2-3.3,1.5c-0.3-1.2-1.3-3.3-1.7-3.9c2.5-0.8,5.5-1.7,7.8-5.2l-9.4-1.6l0.7-4L80.8,21.8z M82.9,16.4l-0.7,3.8
			l-10.4-1.8l0.7-3.8L82.9,16.4z"/>
	</g>
</g>
</svg>
