<?xml version="1.0" encoding="utf-8"?>
<!-- Generator: Adobe Illustrator 19.1.0, SVG Export Plug-In . SVG Version: 6.00 Build 0)  -->
<svg version="1.1" baseProfile="tiny" id="レイヤー_1"
	 xmlns="http://www.w3.org/2000/svg" xmlns:xlink="http://www.w3.org/1999/xlink" x="0px" y="0px" viewBox="0 0 139 73"
	 xml:space="preserve">
<g>
	<polygon fill="#FFFFFF" points="0,15.4 3.2,72.5 50.3,71.4 50.2,67.2 78.6,61.4 78.1,57.4 103.6,53 103.5,49.8 108.7,49.4 
		109.4,53.7 139,43.8 129.2,0 97.9,11.9 98.4,14.9 95.1,15.8 94.4,12.7 69.9,18.7 70,16 50.2,21.5 50,18.8 	"/>
	<polygon points="47.8,65.9 6.9,67.8 5.6,19.8 46.1,22.1 	"/>
	<rect x="44" y="24.6" transform="matrix(0.9799 -0.1993 0.1993 0.9799 -7.4314 12.3985)" width="27.7" height="37.1"/>
	<rect x="70.5" y="20.4" transform="matrix(0.9796 -0.2011 0.2011 0.9796 -5.5495 17.6898)" width="27.7" height="31.5"/>
	<rect x="89.6" y="19.1" transform="matrix(0.9796 -0.2011 0.2011 0.9796 -4.3863 21.4687)" width="27.7" height="26.5"/>
	<polygon points="134.9,40.7 111.7,48.5 100.5,15.1 126.7,6.3 	"/>
	<g>
		<path fill="#FFFFFF" d="M105.2,26.8c-0.2,0.2-0.3,0.4-0.4,0.6c-0.1,0.1-1,2.4-1.2,2.8c0.8,0.1,1.1,0.1,1.2,0.4
			c0,0.1,0.1,0.6,0.1,0.7c0.1,0.5,0.4,1.2,0.5,1.5c0.2,0.6,1.3,2.9,1.6,3.4c0.6,1.3-0.1,1.8-0.4,1.9c-0.6,0.2-1.7-0.2-1.9-0.9
			c-0.1-0.2-0.3-1.3-0.4-1.5c-0.2-0.6-1-2.6-1.2-3.1c-0.2-0.4-0.2-0.5-0.4-0.8c-1.2,1.9-2.8,3.9-4.3,4.9l-0.1,0
			c1.4-2,3.5-6.7,4.2-9.8c0.1-0.5,0-0.7-0.1-0.9c-0.2-0.4-0.4-0.5-0.9-0.5c0.2-0.2,0.4-0.4,0.7-0.5c0.6-0.2,1.3-0.3,2.6,0.3
			c0.6,0.2,0.7,0.4,0.8,0.7C105.7,26.2,105.7,26.2,105.2,26.8z"/>
	</g>
	<g>
		<path fill="#FFFFFF" d="M119.1,17.1c0.7-0.3,0.8-0.3,1-0.7l2.9,0.9c-0.1,0.6,0,1.3,0,1.7c0.4,4.5,1,11.1-4.2,17.6
			c-0.8-0.7-3-2.1-3.8-2.5c1.6-1.3,3.3-4.1,3.8-5.8c0.4-1.2,1-3.7,0.7-7l-9.4,3.5l-1.5-3.9L119.1,17.1z"/>
	</g>
	<g>
		<path fill="#FF0000" d="M34.9,53.6l8.6,0l0,5.8l-22.9,0l0-5.8l7.6,0l0-1.9l-6.2,0l0-5.4c-0.5-1.2-1.1-2.5-2.3-3.7l0,17.5l-6.1,0
			l0-23.5c-0.4,4.8-0.9,6.5-1.2,7.5c-1-1-2.2-1.6-3.5-2.2c0.8-2.8,1-6.6,1-9.8l3.7,0.4l0-6l6.2,0.2c0.4,0,0.9,0,0.9,0.5
			c0,0.6-0.8,0.7-1,0.8l0,4.4l2-1c0.1,0.1,0.1,0.3,0.2,0.4l0-4.6l18,0l2.7,2.4c-1.4,3.6-3.5,6.3-5.5,8.3c2.4,1,4.6,1.6,7.2,2.2
			c-2.1,2.6-2.8,5.5-3,6l0.1,0l0,5.6l-6.3,0L34.9,53.6z M22.4,32.4c1.8,3,1.9,3.2,3,5.2c-1.5,0.5-3.6,1.8-4.4,2.3
			c-0.4-1.1-0.8-2.3-1.3-3.6l0,4.4c2-0.4,4.6-1,7.6-2.6c-0.8-0.8-1.7-1.9-3.1-4.2l4-1.3L22.4,32.4z M28.2,44.3
			c-0.8,0.4-1.9,0.9-4.1,1.7l4.1,0L28.2,44.3z M30.1,32.5c0.8,1,1.3,1.5,1.8,1.9c0.8-0.8,1.2-1.4,1.5-1.9L30.1,32.5z M34.3,43.5
			c-1.2-0.7-1.8-1-2.3-1.4c-1.1,0.7-1.6,1-2.1,1.3L34.3,43.5z M35,46l5.4,0c-1.9-0.5-3.3-1.2-4.6-1.8c-0.1,0.3-0.3,0.3-0.7,0.5
			L35,46z"/>
	</g>
	<g>
		<path fill="#FFFFFF" d="M50.1,39.5c-0.6,0.2-1.1,0-1.8-0.9c-0.4-0.6-1.3-2-2.4-2.5l0-0.2c4.1-1.1,5.2-0.5,5.6,0.8
			C51.9,37.8,51.3,39.1,50.1,39.5z M67,43.2c-3.3-0.9-5-2.3-6.4-4.6c0,0.6,0,1.1-0.3,2.2c-0.8,2.9-4.5,4.9-6.4,5.8l0.6,0l7.7-2.2
			l0.6-1.7c0.1-0.2,0.1-0.3,0.3-0.3c0.1,0,0.3,0,0.5,0.1l3.1,1.2c0.2,0.1,0.4,0.1,0.4,0.3c0.1,0.3-0.1,0.6-0.8,1.1l1.2,4.4l0.1,0
			l0.1-2.6c0-0.2,0.1-0.3,0.2-0.3c0.1,0,0.2,0,0.5,0.1l2.2,1.8c0.2,0.1,0.2,0.2,0.3,0.3c0.1,0.2-0.1,0.3-0.3,0.4l-18.5,5.2
			c-1.2,0.3-1.5,0.5-1.8,0.6L50,54.3c1.3-0.2,2.4-0.6,2.5-0.6l-1.7-6c-1.3,0-1.7-0.9-1.9-1.6c-0.1-0.4-0.1-0.5-0.1-1.3
			c0-0.2,0-0.8-0.1-0.9c-0.1-0.4-0.6-1-1.4-1.2l0-0.2c1-0.3,1.4-0.5,1.8-0.8c1.3-0.9,3.6-4.6,4.1-5.3l0.2,0.1
			c-0.4,2-0.9,3.9-1.5,5.8c-0.1,0.5-0.2,0.7-0.1,0.9c0.1,0.3,0.2,0.4,0.6,0.7c0.3,0.3,0.4,0.7,0.5,0.8c0,0.2,0.3,1-0.1,1.7l0.7,0
			c4.3-3.8,3.8-7.4,3.2-10c-0.6,1.8-1.4,3.4-3.3,5.7L53,42.3c1-5.2,0.1-8.2-0.2-9.4l4.9-0.3c0.3,0,0.5,0,0.6,0.2
			c0.1,0.3-0.2,0.5-0.9,0.8c-0.1,0.4-0.1,0.8-0.3,1.5l4.3-1.2l1-1.9c0.1-0.1,0.1-0.2,0.3-0.3c0.2-0.1,0.2,0,0.6,0.2l3,1.8
			c0.2,0.1,0.4,0.2,0.4,0.4c0.1,0.4-0.2,0.6-1.3,1c-0.7,1.3-2.1,2.7-2.5,3.1c1.2,0.3,2.9,0.5,5.4,0l0,0.2
			C67.1,39.7,66.9,41.5,67,43.2z M55.3,47l-0.7,0.2l1.6,5.6l0.7-0.2L55.3,47z M58.8,46l-0.8,0.2l1.6,5.6l0.8-0.2L58.8,46z
			 M60.2,34.8c0.2,0.6,0.3,1.1,0.5,2.4c0.5,0.4,0.9,0.6,1.4,0.8c0-1.2-0.2-2.3-0.5-3.6L60.2,34.8z M62.5,45l-0.8,0.2l1.6,5.6
			l0.8-0.2L62.5,45z"/>
	</g>
	<polygon fill="#FFFFFF" points="72.1,26.1 92.3,21.4 96.5,45.9 77.9,49.4 	"/>
	<g>
		<path d="M87.4,31.8c0.4-0.1,1-0.2,1.3-0.4l2,1.3c-0.1,0.4-0.4,2.3-0.5,2.7c-0.7,3.7-1.6,5.7-3.5,8.1c-0.5,0.7-1.4,1.7-2.4,2.4
			c-0.7-0.9-2.2-2.4-2.8-2.8c2-1.5,4.4-3.3,5.2-7.1l-8.9,1.7L77,33.8L87.4,31.8z M87.5,26.5l0.7,3.6l-9.9,1.9l-0.7-3.6L87.5,26.5z"
			/>
	</g>
</g>
</svg>
