<?xml version="1.0" encoding="utf-8"?>
<!-- Generator: Adobe Illustrator 19.1.0, SVG Export Plug-In . SVG Version: 6.00 Build 0)  -->
<svg version="1.1" baseProfile="tiny" id="レイヤー_1"
	 xmlns="http://www.w3.org/2000/svg" xmlns:xlink="http://www.w3.org/1999/xlink" x="0px" y="0px" viewBox="0 0 141 78"
	 xml:space="preserve">
<g>
	<polygon fill="#FFFFFF" points="0,16.7 13.8,74.1 52.6,69 55.2,77.8 92.9,65.3 90.8,57.6 113.1,52 112.1,46.7 141,37.4 137.8,0 
		101.7,13.5 102.2,15.9 79.1,21.8 77.8,15.7 53.6,23.4 52.6,14.9 	"/>
	<polygon points="110,49 83,57 72,25.8 102.5,18.4 	"/>
	<polygon points="138.4,35.4 112.4,43.9 103.6,15.5 133.8,4.2 	"/>
	<rect x="97.4" y="18.5" transform="matrix(0.9382 -0.3462 0.3462 0.9382 -3.9023 39.2361)" width="21" height="24.2"/>
	<rect x="49.4" y="23.1" transform="matrix(0.9531 -0.3026 0.3026 0.9531 -10.8907 22.3818)" width="34.7" height="46.5"/>
	<polygon points="56.4,65.2 15.3,70.5 5.5,20.3 49.6,18.1 	"/>
	<g>
		<path fill="#FF0000" d="M21.6,37l0.5,4.8l-4.6,0.5l-1-9.5l4.1-0.4c-0.7-1.1-1.6-2.2-2.4-3.1l4-2.5c1.4,1.3,3,3.2,3.7,4.6L25,31.9
			l3.8-0.4c-0.7-1.3-1.6-2.8-2.4-4l4.2-2.2c1.3,1.5,2.7,3.6,3.3,5.2l-1.1,0.6l3.7-0.4c0.8-1.8,1.7-4,2.1-5.8l6,1.6
			c-0.2,0.4-0.6,0.5-1,0.6c-0.4,0.9-0.9,2-1.5,3l4.2-0.4l1,9.5l-4.9,0.5l-0.5-4.8L21.6,37z M48.2,44.8l0.5,4.9l-12.8,1.3l0.4,3.7
			c0.4,4.2-0.7,5.7-8.7,6.5c-0.5-1.5-1.6-3.7-2.5-5c1.9-0.1,4.6-0.4,5.3-0.4c0.7-0.1,0.9-0.2,0.8-0.8l-0.4-3.5L18,53l-0.5-4.9
			l12.8-1.3L30,44.5l2.2-0.1c0.5-0.5,0.9-1.1,1.4-1.7l-10.2,1.1l-0.5-4.6l14.6-1.5l0.8-0.3l4,2c-0.1,0.3-0.5,0.5-0.8,0.7
			c-1.3,1.8-3,4.1-4.9,6.1L48.2,44.8z"/>
	</g>
	<g>
		<path fill="#FFFFFF" d="M62.3,38l-1.5-4.1l4.3-1.4c0.1-0.1,0.6-0.2,0.8,0.3c0.1,0.4-0.1,0.6-0.5,0.9l1.1,2.8l6.2-2.3l1.7,4.6
			L68.1,41l1.2,3.1l5.2-1.9l1.7,4.5L71,48.7l1.2,3.2l6.9-2.6l1.7,4.7l-19.2,7.2l-1.7-4.7l8.2-3.1l-1.2-3.2l-5.1,1.9l-1.6-4.2
			c-0.1,0.5-0.1,0.6-0.2,1c-1.4-0.9-3-1.3-4.2-1.4c0.6-2.1,0.6-7.8-0.3-11.2l4.2-0.7c0.5-0.1,0.6,0,0.7,0.3c0.1,0.3-0.1,0.6-0.3,0.8
			c0.1,0.8,0.2,1.3,0.2,2.2L62.3,38z M60.4,43.9c0,1.5-0.1,2.4-0.3,3.7l5-1.9L64,42.6L60.4,43.9z"/>
	</g>
	<g>
		<path fill="#FFFFFF" d="M109.7,24.5c-0.1,0.2-0.3,0.5-0.4,0.7c0,0.1-0.8,2.7-1,3.2c0.9,0,1.2,0,1.4,0.3c0.1,0.1,0.2,0.7,0.2,0.8
			c0.2,0.5,0.6,1.3,0.7,1.5c0.3,0.6,1.8,3,2.1,3.5c0.8,1.4,0.1,2-0.2,2.1c-0.6,0.3-1.8,0-2.2-0.7c-0.1-0.2-0.5-1.4-0.6-1.6
			c-0.3-0.7-1.4-2.7-1.7-3.2c-0.2-0.4-0.3-0.5-0.5-0.8c-1,2.2-2.6,4.5-4,5.7l-0.1,0c1.3-2.3,3-7.6,3.4-11.1c0-0.5,0-0.7-0.2-1
			c-0.2-0.4-0.5-0.5-1.1-0.5c0.1-0.2,0.4-0.5,0.7-0.6c0.6-0.3,1.4-0.4,2.8,0c0.6,0.2,0.8,0.3,1,0.6
			C110.2,23.8,110.1,23.9,109.7,24.5z"/>
	</g>
	<g>
		<path fill="#FFFFFF" d="M125.5,14c0.8-0.3,0.9-0.4,1.1-0.7l3.1,0.9c-0.1,0.7,0,1.5,0,1.8c0.5,4.9,1.2,12-4.5,19.2
			c-0.8-0.7-3.2-2.3-4.1-2.7c1.8-1.5,3.5-4.5,4.1-6.3c0.4-1.3,1.1-4,0.7-7.6l-10.2,3.9l-1.6-4.2L125.5,14z"/>
	</g>
	<polygon fill="#FFFFFF" points="75.9,28.9 97.2,23.4 100.6,47 85,52 	"/>
	<g>
		<path d="M92.6,33.5c0.3-0.1,1-0.3,1.2-0.6l2.1,1c-0.1,0.4-0.2,2.3-0.2,2.7c-0.3,3.8-1,5.8-2.6,8.4c-0.4,0.7-1.2,1.9-2.2,2.6
			c-0.8-0.8-2.5-2.2-3.1-2.5c1.8-1.7,4-3.7,4.4-7.6l-8.7,2.7l-1.1-3.6L92.6,33.5z M92.1,28.1l1.1,3.5l-9.7,3l-1.1-3.5L92.1,28.1z"/>
	</g>
</g>
</svg>
