<?xml version="1.0" encoding="utf-8"?>
<!-- Generator: Adobe Illustrator 19.1.0, SVG Export Plug-In . SVG Version: 6.00 Build 0)  -->
<svg version="1.1" baseProfile="tiny" id="レイヤー_1"
	 xmlns="http://www.w3.org/2000/svg" xmlns:xlink="http://www.w3.org/1999/xlink" x="0px" y="0px" viewBox="0 0 130 76"
	 xml:space="preserve">
<g>
	<path fill="#030000" d="M117.4,57.2h-3.5l1.1-1.6h-7.5l-3.3,3.8l0.7-2.3h-2.9l0.5-1.6H99L97.3,57h-2.6l1.1-1.6h-4.1L90.7,57h-1.8
		l0.1-1.6h-3.4L84,57.6c-0.4-0.4-1-0.6-1.8-0.7c-0.1-0.3-0.2-0.5-0.4-0.7c-0.5-0.6-1.5-0.9-2.7-0.9c-1.6,0-3.8,0.6-6,2.1
		c-0.5-0.3-1.1-0.5-1.6-0.5c-0.1-0.3-0.2-0.6-0.4-0.7c-0.6-0.7-1.7-0.9-2.5-0.9c-0.2,0-0.3,0-0.4,0c-0.4,0-3,0.1-5.2,2
		c-0.3-0.1-0.7-0.2-1.2-0.2c-0.1-1-1.1-1.6-2.7-1.6c-0.1,0-0.2,0-0.3,0l-4.4,0h-1.3h-0.5c15.9-2,30-7.5,37.3-14.9
		c3.4-3.4,5-7,5-10.6c-0.1-4.4-2.5-8-7.4-10.8c-2.7-2.1-6.5-3.8-11.4-5.1h26.2l0.2,0l0,0c0.5-0.1,0.9-0.3,1.2-0.7l0,0l4.8-7.3
		l0.2-0.3l0,0c0,0,0-0.1,0-0.2c0-0.4-0.3-0.8-0.6-1l0,0h-2l0.1-0.1l0.2-0.3l0,0c0,0,0-0.1,0-0.2c0-0.4-0.3-0.8-0.6-1l0,0H62.1
		l-0.2,0l0,0c-0.4,0-0.8,0.2-1.1,0.6l0,0l-9.7,14.6l-0.2,0.3c0,0,0,0,0,0c-0.1,0.6,0.3,1,0.7,1.1l0,0l0.3,0c0.6,0,1.1,0.1,1.7,0.1
		c0,0-0.2,0.3-0.2,0.5c0,0.2,0,0.2,0,0.2c-1.4-0.1-2.9-0.2-4.4-0.2l0,0H31.7l-0.2,0l0,0c-0.5,0-1,0.3-1.3,0.7l0,0l-30,45.3L0,66.6
		c0,0,0,0,0,0c0,0.4,0.3,1,0.6,1.1l0,0h2.1l-0.1,0.2l-0.2,0.3c0,0,0,0,0,0c0,0.4,0.3,0.9,0.6,1.1l0,0h15.8l0,0h0
		c0.7,0,1.3-0.3,1.6-0.9l9.3-14c0.3,0,0.7,0,1,0.1l0,0.1l-0.2,0.3c0,0,0,0,0,0c0,0.5,0.3,0.9,0.6,1.1l0,0l0.3,0
		c0.5,0,1.1,0.1,1.6,0.1l-8,11.7h3.5l-1.1,1.6h4.1l2.8-4.1c0.4,0,1.2,0,2.1,0c0.1,0,0.2,0,0.3,0L35,67.7h3.5l-1.1,1.6h6.4l1.1-1.6
		l0.5,0l-1.1,1.6h3h0.1h4.1l1.1-1.6h2.4c0,0.5-0.1,0.9-0.1,0.9l-0.1,0.7h4.4l0.1-1.6c0.2,0,0.4,0.1,0.6,0.1c0.1,0.2,0.2,0.4,0.3,0.6
		c0.7,0.9,2.2,1.1,3.1,1.1c1.1,0,2.3-0.2,3.2-0.6c1-0.4,1.8-0.9,2.5-1.5c0.4,0.2,0.9,0.4,1.4,0.5c0.1,0.2,0.2,0.4,0.4,0.6
		c0.6,0.7,1.6,1,2.9,1l0,0c1.7,0,3.7-0.7,5.4-1.8h1.5l-1.1,1.6h4.1l1.1-1.6h1.5h0.4l-0.1,1.6h2.1h1.3h3.3l1.6-1.6h2.8L97,69.3h4.2
		l0.5-1.5c0.2,0.1,0.5,0.1,0.7,0.1c0,0,0,0,0,0.1c0.1,0.5,0.4,0.9,0.9,1.1c0.5,0.3,1,0.4,1.7,0.4c1.7,0,3.7-0.8,5.1-2
		c1.9-1.7,2.5-2.7,2.9-3.6c0.2-0.4,0.6-1.4,0.2-2.3c-0.2-0.5-0.6-0.9-1.1-1l0,0h3L117.4,57.2z M72.3,24.7c1.3,1.2,1.9,2.5,1.9,4.1
		c0,0.6-0.1,1.2-0.2,1.7c-0.1-2.3-1.6-4.2-4.3-5.6c-1.1-1-2.5-1.8-4.4-2.5C68.2,23,70.5,23.8,72.3,24.7z M43.5,33.5l3.2-4.8l0.2-0.3
		c0.1-0.2,0.3-0.4,0.6-0.4l0,0c1.4,0,4.5,0,6.6,0.5C54,31,49.8,32.9,43.5,33.5z M76.1,62.5c-0.8,0.8-1.6,1.4-2.3,1.7
		c0.3-0.7,0.9-1.8,2-3c0.7-0.7,1.5-1.2,2.1-1.5C77.8,60.4,77.2,61.4,76.1,62.5z"/>
	<g>
		<polygon fill="#FFFFFF" points="43.7,56 36.1,67.1 44.6,67.1 46.1,64.9 40.3,64.9 42,62.5 47.2,62.5 48.7,60.3 43.5,60.3 
			44.9,58.3 50.5,58.3 52,56 		"/>
		<path fill="#FFFFFF" d="M70.3,59.4c0.5-0.7,0.7-1.7,0.7-1.7c0.3-2.1-2.7-1.8-2.7-1.8s-3.5,0-5.8,2.8c-2.3,2.8,0,3.5,0,3.5l2.1,0.7
			c0,0,1,0.2,0.1,1.3c-0.9,1-2.4,0.9-2.6,0.9c-0.2,0-1.4-0.2-0.4-1.8l-2.7,0.2c0,0-1.4,1.9-0.6,3c0.8,1.1,3.8,1,5.6,0.3
			c1.8-0.8,3.4-1.9,4.3-3.9c0.9-2-1.4-2.4-1.8-2.6c-0.5-0.1-1.2-0.4-1.3-0.4c-0.1,0-0.6-0.2-0.1-0.9c0.5-0.7,1.3-1,2.4-0.9
			c1.1,0.1,0.4,1.3,0.3,1.4L70.3,59.4z"/>
		<polygon fill="#FFFFFF" points="88.3,56 85.8,56 78.2,67.1 80.8,67.1 85,61.1 84.6,67.1 87.1,67.1 94.7,56 92.1,56 87.9,62 		"/>
		<path fill="#FFFFFF" d="M107.5,59.5l1-1.1h3.9l1.5-2.2h-6.1l-5.3,6.1l2.6,0c0,0,1-0.8,1.6-0.7c0.6,0.1,1,0.8-0.6,2.5
			c0,0-1.7,1.6-2.4,1c0,0-0.3-0.3,0.3-1.3l-2.8,0.2c0,0-1.4,2.2,0,3c1.4,0.8,4.4,0,6.2-1.6c1.8-1.6,2.3-2.5,2.7-3.4
			c0.4-0.9,0.5-2.1-0.6-2.5c0,0-1-0.3-1.9-0.1L107.5,59.5z"/>
		<path fill="#FFFFFF" d="M40.8,56.8C40.4,56,38.8,56,38.8,56h-5.1l-7.6,11.1h2.7l2.8-4.1c0,0,1.1,0,2.4,0c1.3,0,3.2-0.5,4.9-2.1
			C40.6,59.3,41.2,57.7,40.8,56.8z M37.5,59.2c-0.4,0.6-1.1,1.6-2.7,1.6h-1.7l1.8-2.6h1.8c0,0,0.7,0,0.8,0.1
			C37.6,58.4,37.9,58.5,37.5,59.2z"/>
		<path fill="#FFFFFF" d="M61.2,57.2c-0.1-1.3-2.3-1.1-2.3-1.1l-5.2,0L46,67.1h2.7l3.1-4.5h0.8c0,0,0.7-0.1,0.7,0.8
			c0,0.9-0.3,3.6-0.3,3.6h3.2l0.3-3.4c0,0,0.1-1.2-0.1-1.4l0.2-0.1c1.6-0.5,2.9-1.6,3.8-2.9C61.3,58,61.2,57.2,61.2,57.2z
			 M57.3,59.7c-0.7,0.8-2.1,0.7-2.1,0.7l-2,0l1.6-2.3c0,0,1.4,0,1.9,0c0.5,0,1.2,0.1,1.2,0.3C58,58.7,58.1,59,57.3,59.7z"/>
		<path fill="#FFFFFF" d="M81.4,56.6c-1.2-1.4-5.6-0.9-8.9,2.1c-3.2,2.9-5,6.3-3.7,7.8c1.5,1.6,5.9,0.9,9-1.9
			C81.1,61.6,82.7,58.1,81.4,56.6z M76.6,62.9c-1.7,1.9-4,2.7-4.9,1.8c-0.7-0.8,0.4-3,2.1-4.7c1.9-1.9,3.9-2.5,4.6-1.7
			C79.2,59.2,78.2,61.1,76.6,62.9z"/>
		<path fill="#FFFFFF" d="M99.3,56L87.6,67.1h2.8l3.1-3h2.9l-1,3h2.9l3.3-11.1H99.3z M97.1,62h-1.4l2-1.9L97.1,62z"/>
		<path fill="#FFFFFF" d="M33.1,43c0.2-0.4,0.6-0.6,1.1-0.6v0c16.8-0.2,36.9-5,36.9-13.3c0-6.8-13.1-8.2-23.3-8.3l0,0H31.7l0,0
			c-0.4,0-0.8,0.2-1,0.6l0,0l-30,45.2l0,0c0,0,0,0.1,0,0.2c0,0.2,0.1,0.3,0.3,0.3l0,0h15.5c0,0,0,0,0,0c0.5,0,0.9-0.2,1.1-0.6
			L33.1,43z M39.2,33.7l4.8-7.2h0c0.2-0.4,0.6-0.7,1.1-0.7v0c5,0,9.7,0.4,9.7,2.5c0,3.9-7.2,5.9-15.2,6c0,0,0,0,0,0
			c-0.2,0-0.4-0.2-0.4-0.4C39.2,33.8,39.2,33.8,39.2,33.7L39.2,33.7z"/>
		<path fill="#FFFFFF" d="M105.9,3.9c0-0.2-0.1-0.3-0.3-0.3c0,0,0,0,0,0l0,0H78.1h-7.8h-8.3l0,0c-0.3,0-0.7,0.2-0.8,0.4l0,0
			l-9.6,14.5l0,0c0,0,0,0.1,0,0.1c0,0.2,0.1,0.3,0.3,0.3c0,0,0,0,0,0l0,0c11.1,0.6,23,2.7,23,9.7c0,10.3-20.4,14.8-39.6,15.4l0,0
			c-0.4,0-0.8,0.2-1,0.5l0,0l0,0c0,0,0,0,0,0l-5.5,8.5l0,0c0,0.1-0.1,0.1,0,0.2c0,0.2,0.1,0.3,0.3,0.3l0,0
			c32.4,2.6,63.1-10.7,62.9-25.3c-0.1-8-8.6-12.4-19.8-14.7v0c-0.2,0-0.4-0.2-0.4-0.4c0-0.1,0-0.2,0.1-0.2h0l0.6-1h0
			c0.1-0.1,0.2-0.2,0.4-0.2c0,0,0,0,0,0v0H100c0,0,0,0,0,0c0,0,0,0,0,0h0l0,0c0.4,0,0.8-0.2,1-0.6l0,0l4.8-7.2l0,0
			C105.9,4.1,105.9,4,105.9,3.9z"/>
	</g>
	<g>
		<path d="M103.3,55.5c0.1,0,0.2,0,0.3,0.1c0.1,0.1,0.2,0.1,0.2,0.2c0.1,0.1,0.1,0.2,0.1,0.3c0,0.1,0,0.2-0.1,0.3
			c-0.1,0.1-0.1,0.2-0.2,0.2c-0.1,0.1-0.2,0.1-0.3,0.1c-0.1,0-0.2,0-0.3-0.1c-0.1-0.1-0.2-0.1-0.2-0.2c-0.1-0.1-0.1-0.2-0.1-0.3
			c0-0.1,0-0.2,0.1-0.3c0.1-0.1,0.1-0.2,0.2-0.2C103.1,55.6,103.2,55.5,103.3,55.5z M103.3,55.6c-0.1,0-0.2,0-0.3,0.1
			c-0.1,0-0.2,0.1-0.2,0.2c0,0.1-0.1,0.2-0.1,0.3c0,0.1,0,0.2,0.1,0.3c0,0.1,0.1,0.2,0.2,0.2c0.1,0,0.2,0.1,0.3,0.1
			c0.1,0,0.2,0,0.3-0.1c0.1,0,0.2-0.1,0.2-0.2c0-0.1,0.1-0.2,0.1-0.3c0-0.1,0-0.2-0.1-0.3c0-0.1-0.1-0.2-0.2-0.2
			C103.5,55.7,103.4,55.6,103.3,55.6z M103.1,56.5v-0.7h0.2c0.1,0,0.1,0,0.2,0c0,0,0.1,0,0.1,0.1c0,0,0,0.1,0,0.1
			c0,0.1,0,0.1-0.1,0.1c0,0-0.1,0.1-0.1,0.1c0,0,0,0,0.1,0c0,0,0.1,0.1,0.1,0.1l0.1,0.1h-0.1l-0.1-0.1c0-0.1-0.1-0.1-0.1-0.2
			c0,0,0,0-0.1,0h-0.1v0.3H103.1z M103.2,56.1h0.1c0.1,0,0.1,0,0.1,0c0,0,0,0,0-0.1c0,0,0,0,0-0.1c0,0,0,0,0,0c0,0-0.1,0-0.1,0h-0.1
			V56.1z"/>
	</g>
</g>
</svg>
