<?xml version="1.0" encoding="utf-8"?>
<!-- Generator: Adobe Illustrator 19.1.0, SVG Export Plug-In . SVG Version: 6.00 Build 0)  -->
<svg version="1.1" baseProfile="tiny" id="レイヤー_1"
	 xmlns="http://www.w3.org/2000/svg" xmlns:xlink="http://www.w3.org/1999/xlink" x="0px" y="0px" viewBox="0 0 452 158"
	 xml:space="preserve">
<g>
	<path d="M405.3,156.8c-1,0-2,0-3,0c-0.4-0.3-0.7-0.7-1.1-0.8c-11.4-1.4-22.7-2.7-34.1-4c-14.2-1.6-28.3-3.2-42.8-4.8
		c-1.1,2.5-2.1,5.1-3.3,7.9c-8.3-0.3-16.5-0.8-24.6-1c-14.6-0.4-29.3-0.7-43.9-1.1c-15.1-0.3-30.3-0.7-45.4-1
		c-0.8,0-1.6-0.2-2.5-0.3c0.7-3.1,1.3-5.9,2-9.1c-20-1.9-39.5-3.8-59-5.7c-2.1,2.8-4.1,5.4-6,8c-7.8,0.7-15.4,1.4-23.1,2.1
		c-3.6,0.3-7.3,0.7-10.9,1.1c-8.8,0.9-17.5,1.8-26.3,2.7c-9.4,1-18.8,2-28.3,2.8c-2.7,0.3-5.5,0.7-8.2,0c0.5-3,1-5.7,1.5-8.8
		c-10.6,3.4-20.7,6.6-30.9,9.9c-5.2-7.3-10.2-14.3-15.3-21.5C13,109,25.9,84.8,38.8,60.7c1.9-0.3,3.6-0.6,5.2-0.7
		c12.8-0.5,25.6-0.9,38.4-1.3c4.1-0.2,8.3-0.5,12.4-0.7c2.3-0.1,4.6,0,7.2,0c-1.1,2.9-2,5.5-3.2,8.7c10.4-0.8,20.3-1.5,30.3-2.3
		c0.8-0.7,1.8-1.4,2.5-2.3c1.9-2.4,4.4-3.4,7.4-3.3c2.8,0.1,5.7,0,8.5-0.3c11.8-0.9,23.5-1.8,35.3-2.7c7.6-0.5,15.3-0.9,22.9-1.3
		c0.6,0,1.3-0.3,2-0.6c3.6-7.8,7.3-15.7,10.9-23.6c2.6-0.4,5.1-0.8,7.5-1.1c7.5-1.2,15.1-2.3,22.6-3.5c7-1.1,14.2-1.9,21.1-3.5
		c22.8-5.3,45.5-10.9,68.2-16.4C346.4,4,354.5,2,363,0c0.5,7.3,0.9,14.4,1.4,21.7c9.9-1.6,19.3-3.2,28.8-4.8
		c9.5-1.6,19-3.3,28.5-4.7c9.4-1.4,18.8-3.5,28.4-4.5c0,1,0.1,1.5,0,2c-7.2,23.5-14.4,47-21.5,70.4c-4.3,14-8.4,28-12.6,42
		C412.5,133.6,408.9,145.2,405.3,156.8z"/>
</g>
</svg>
