<?xml version="1.0" encoding="utf-8"?>
<!-- Generator: Adobe Illustrator 19.1.0, SVG Export Plug-In . SVG Version: 6.00 Build 0)  -->
<svg version="1.1" baseProfile="tiny" id="レイヤー_1"
	 xmlns="http://www.w3.org/2000/svg" xmlns:xlink="http://www.w3.org/1999/xlink" x="0px" y="0px" viewBox="0 0 951 783"
	 xml:space="preserve">
<g>
	<path d="M0,2c0-0.5,0-1,0-2c52.7,0,105.3,0,158,0c0.3,2.5,0.8,5,0.7,7.5c-0.2,6.1,2,11.3,4.8,16.5c3.3,6.1,6.8,12.3,8.8,18.9
		c2.5,8.6,7.8,14.9,14.1,20.8c4.8,0.9,9.6,1.9,14.5,2.9c1.9-4.8,3.6-9.1,5.4-13.8c3.2,0,6.5,0.4,9.5-0.1c9.1-1.4,17,0.9,24.2,6.5
		c4.5,3.6,9.7,4.4,15.4,4.5c10.3,0.2,20.6,0.3,30.3,5c5.5,2.7,10.2,6.1,13.2,11.6c4.3,8.1,8.6,16.1,13,24.2c3,0.7,5.9,1.4,8.9,2.1
		c2.3-2.6,4.5-5.1,6.7-7.5c5.8-0.5,11.4-1,17.2-1.5c4,8.3,10.6,12.6,19,14.5c9.6-5.2,14.3-9.2,16.6-16.1c-0.1-0.3-0.1-0.7-0.3-0.9
		c-0.6-0.8-1.2-1.6-1.8-2.4c-10.7-12.4-13-26.9-10.2-42.6c2.3-12.4,2.7-24.5-4.1-35.7c-3-5-6.5-9.7-9.7-14.5c75.3,0,150.7,0,226,0
		c-5.9,9.9-11.1,20.1-13.2,31.6c-1.1,6.2-2.3,12.4,1.1,18.5c5.6,10.2,7.3,20.9,2.4,32.2c-2.5,2.5-5.1,5.3-7.9,7.9
		c-2.7,2.4-5.3,5.2-8.4,6.7c-3.3,1.7-7.2,2.1-11.2,3.2c0.9,4.1,1.7,7.8,2.4,11.2c12,9.4,22.5,20,36.8,25.2
		c6.9-4.5,8.3-6.4,11.6-13.2c2.3-4.8,4.4-10,7.8-13.7c7-7.6,15-14.4,22.7-21.7c2.3,1.8,4.4,3.4,6.6,5.1c1.1-1.5,2-2.9,3-4.1
		c4.7-5.6,9.3-11.3,14.1-16.8c1.1-1.3,2.9-2.4,4.5-2.8c9.8-1.9,19.7-3.5,29.7-1.8c4.4,0.7,8.1-0.1,11.9-2.2
		c6.4-3.6,13.4-5.4,20.8-6.7c0.3,3,0.5,5.7,0.9,9.2c4.3-2.3,8.2-3.7,11.1-6.2c7.6-6.7,14.7-13.9,21.9-21.1c1.2-1.2,2.2-3,2.8-4.6
		c4.3-10.6,8.4-21.3,12.6-32c0.5-1.2,0.6-2.5,0.9-3.8c57.3,0,114.7,0,172,0c1.7,18,0.7,35.9-3.2,52.7c-5.7,9.9-13.7,15.8-23.7,19.2
		c-0.6,0.2-1.2,0.5-1.8,0.8c-0.8,0.5-1.6,1.1-3,2c15.2,3.9,30.5,2.8,44.9,8.2c-1.2,6-2,11.9-5.1,17.2c-5.1,8.7-9.8,17.7-14.6,26.6
		c-2,0.1-3.7,0.4-5.3,0.4c-5.4,0-10.3,1.5-15.1,4.3c-4.7,2.7-9.9,4.6-15,6.7c-4.4,1.8-8.9,3.4-13.4,5c0,0.3,0.1,0.5,0.1,0.8
		c7.8,1.2,15.6,2.4,23.3,3.6c6.3,4.6,11.4,9.8,13.6,17.4c0.9,3,2.1,6,3.5,8.8c5.3,10.3,3.4,21.2,1.2,31.3
		c-2.6,11.6-8.9,22.1-16,32.4c-5.7-5.5-11.3-10.9-16.9-16.4c-6.2,3.1-12.3,3.7-18.7,2c-2.7-0.7-5.5-1.2-8.3-1.5
		c-4.1-0.5-8.3-1.3-12.4-1.2c-5.6,0.2-11.2,1.2-18.1,2c-2,2.5-4.5,5.6-6.6,8.2c-16.5,1.5-32,3-48.4,4.5c7.7,8.4,14.8,16,21.9,23.7
		c-1.9,4-3.7,7.7-5.5,11.3c-5.4,0-10.4,0.5-15.3-0.1c-11.8-1.4-23.2-0.7-33.6,4.8c-4.8-0.5-9.3-1-14.1-1.5c-0.2,3.4-0.3,5.9-0.5,9.1
		c-12.4,11.8-18.1,27.7-23,44.5c1.8,4.5,3.8,9.3,5.6,13.7c3.4,1.7,6.4,3.1,9.2,4.6c0.5,4.6,1,8.8,1.5,13c3,1.6,5.8,3.1,9.2,4.8
		c0,7.6,0,15.4,0,23.7c0.8,1.1,2.2,2.7,3.2,4.4c2.3,4,3.8,8.7,2,12.9c-5,11.3-7.3,24.1-17,32.4c-0.6,3.2-1.2,6-1.8,9.1
		c-2.8-1.7-5.4-3.3-8-4.9c-1.9,4.5-3,9.1-5.5,12.9c-4.9,7.5-10.4,14.6-15.6,21.9c-1,1.4-2.1,3.1-2.4,4.8c-0.7,4.1-1,8.2-1.6,12.8
		c5.9,5.7,14.3,4.2,21.5,7.6c1.5,2.2,3.2,4.9,4.6,7.1c-0.7,6.1-3.5,11.4-2.7,17.7c4.6-3.7,8.7-7,13.2-10.5
		c4.5,4.9,8.8,9.5,13.5,14.5c0,13,0,26.3,0,39.2c2.9,2.1,5.4,3.6,7.5,5.4c1.9,1.6,3.9,3.2,5.1,5.3c5.3,8.5,10.3,17.1,15.3,25.7
		c0.8,1.4,1.7,3,1.8,4.6c0.2,10.8,0.1,21.6,0.1,32.4c-3.1,3.9-6.1,7.7-9,11.4c-9.6,2.1-19,4.2-28.6,6.4c-0.9,7.3-1.5,14.2-2.6,21.1
		c-1.2,8-0.8,15.4,4,22.4c3.5,5,5.8,10.7,4.7,16.7c6.4,5.9,9.5,12.9,11.5,20.7c10.5,10.6,15.3,24.7,22.4,37.4
		c-0.3,0.2-0.6,0.4-0.8,0.6c-6.8-3.3-13.6-6.6-20.4-9.9c-0.1,0.2-0.2,0.5-0.4,0.7c6.6,4,13.1,8.1,19.7,12.1
		c-7.2-1.3-14.1-3.2-20.9-5.1c-24.4-6.6-47.4-16.3-69.5-31.1c-9.8,1.1-20.9,2.4-31.9,3.7c-23.8,2.8-47.6,5.7-71.4,8.5
		c-23.8,2.8-47.6,5.7-71.5,8.3c-3.5,0.4-7.4,0.4-10.8-0.6c-76.6-20.9-153.1-41.9-229.6-62.9c-1.8-0.5-3.7-0.8-5.2-1.8
		c-8-5.6-15.9-11.4-24-17.2c2.4-5.4,4.7-10.4,6.7-15.4c3.2-8,4.4-16.3,2.7-24.9c-0.7-3.8-1.9-7.5-2.2-11.3
		c-0.7-7.1-2.2-14.2-0.4-21.3c1.7-6.4,3.1-12.9,4.6-19.4c0.6-2.9,1.1-5.7,1.7-8.5c-5.3,0-10,0.1-14.8,0c-2.1,0-4.4,0.1-6.4-0.7
		c-9-3.5-17.8-7.4-26.7-11c-4.5-10.1-9.2-19.9-10.4-30.8c-1.1-9.9-1.9-19.8,1.8-29.6c2.2-5.7,2.9-11.9,4.3-17.9
		c0.6-2.6,1.3-5.2,2.2-7.7c4-10.7,8.2-21.4,12.3-32c-3.2-7.5-5.3-14.9-5.1-23.1c12.5-5.3,21.3-13.5,22.2-28.4
		c-3.8-0.2-7.1-0.4-10.4-0.6c-2,2.4-3.9,4.7-5.8,6.8c-2.9-0.5-5.5-0.9-8.8-1.4c-3,8-10.4,9.5-17.4,11.6c-1.4,0.4-2.8,1.4-4.2,1.4
		c-5.7,0-12,1.1-17-0.9c-7.8-3-14.7-8.4-20.2-16.2c-2.1-9.9-4.4-20.6-6.8-31.5c2.1,0,3.6-0.1,5,0c7.1,0.5,14.3,0.9,21.4,1.7
		c4.9,0.5,8.8-2,11.2-5.3c5.8-8.3,10-17.5,8.8-27.9c-0.7-5.8,0.4-10.7,3-15.7c1.7-3.2,3.8-6.7,4-10.1c0.4-8.3-1-16.5-6.5-23.4
		c-3.9,2.2-7.8,4.4-11.7,6.7c-2.2-9.3-3.7-18.2-2.4-27.2c1.2-8.7,3.4-17.4,5.2-26.4c-4.9,0-9.5,0-14.2,0c-2.4-5.1-4.8-10.1-7.2-15.1
		c-5.4,0-10.6,0-15.6,0c-3.8-2.8-7.4-5.4-11.7-8.7c-4,1-8.6,1.7-12.9,3.3c-7.5,2.7-14.8,5.9-22.3,8.8c-1.4,0.5-2.8,1.2-4.3,1.3
		c-12.8,0.9-25.5,2.4-38.2-1.5c-5.4-1.7-11-2.4-16.6-3.6c-5.1-1.1-10.2-2.3-15.9-3.6c6.9-8.2,13.2-15.7,19.5-23.2
		c0.3-0.4,0.7-0.7,1.1-1c5.6-4,11.3-7.9,16.9-11.9c1.1-0.8,1.8-2,2.7-2.9c2.4-2.3,4.6-4.7,7.2-6.6c7-5,14.2-9.7,21.6-14.8
		c-2.2-2.4-3.9-4.2-5.2-5.8c0.2-4.9,0.5-9.3,0.7-14c-2,0.1-3.1,0.2-4.3,0.2c-6.6,0.4-13.3,0.7-19.9,1.3c-6.3,0.6-10.7-2.4-14.4-7.1
		c0.4-2.5,0.7-5,1-7.3c-7.3-8.4-17.6-12.1-26.1-18.8C12,105.3,9.5,98.8,6.9,92c10.3-3.6,20.3-7.1,31-10.9c-1.4-0.8-2-1.3-2.7-1.5
		c-7.3-2.2-13.3-6.9-19.2-11.4c-3.9-3-8.1-6.3-10.6-10.4C1.8,51.9,0.6,45,3.5,37.9c2.7-3,5.6-6.1,8.5-9.2c-1.3-1.6-2.1-2.9-3.2-3.9
		C5.4,21.6,3.8,17.5,3,13C2.2,9.3,1,5.7,0,2z"/>
</g>
</svg>
