<?xml version="1.0" encoding="utf-8"?>
<!-- Generator: Adobe Illustrator 19.1.0, SVG Export Plug-In . SVG Version: 6.00 Build 0)  -->
<svg version="1.1" baseProfile="tiny" id="レイヤー_1"
	 xmlns="http://www.w3.org/2000/svg" xmlns:xlink="http://www.w3.org/1999/xlink" x="0px" y="0px" viewBox="0 0 1110 803"
	 xml:space="preserve">
<g>
	<path d="M1,241.5c0-0.7,0-1.3,0-2c4.7,0.2,9.3,0.4,14,0.5c5.6,0.1,11.7,1.5,16.8-0.2c7.1-2.4,13.4-7.1,20-10.7
		c-0.3-0.8-0.4-1.2-0.6-1.3c-7-4.8-14-9.6-21.1-14.3c-11.5-7.7-14.7-15.9-11.1-29c2-7.3,4-14.5,6.2-22.4c3.7,3.1,6.8,5.6,10.3,8.5
		c0.9-10.1,1.7-19.2,2.5-28.3c3.8-3.5,7.4-6.9,11.1-10.2c1.8,1.1,3.1,2,4.5,2.9c1.7-2.2,3.3-4.1,4.8-6c2.7,0.4,5.3,0.8,8.7,1.4
		c-5.3-28.9-10.4-57-15.6-85.3C65,30.4,78.4,15.8,91.7,1.3c46.5,11.8,92.4,23.4,138,35c0.7,3.3,1.2,5.9,1.8,9
		c23,6.1,46.1,12.2,69.1,18.3c0.6,4.2,1.1,7.8,1.6,11.3c8.2,3.3,16.1,6.5,24,9.6c2.9-3.3,5.6-6.3,8.4-9.4
		c20.4,7.3,40.4,14.5,60.2,21.6c0.6,3,1,5.4,1.5,8.1c13.8,3.4,27.5,6.7,41.3,10c2.2-4,4.1-7.4,6.1-11.2
		c18.1,8.8,35.7,17.3,53.6,25.9c-1.8,10.5-3.5,20.6-5.3,30.8c22.9,9.3,43.9,22,69.5,23.6c0-8.1,0-16.1,0-24.1
		c7.4-6.1,14.5-11.8,21.7-17.7c5.1,0.8,10.2,1.5,14.3,2.1c5.5-5.9,10.4-11.3,16.1-17.4c-1.7-4.6-3.9-10.7-6.5-17.6
		c16.5,4.4,31.7,8.4,48.2,12.7c-6-9.7-11.2-18.3-16.8-27.3c8.6-0.5,15.7,0.2,22.6,4.3c15.2,8.9,30.9,17.1,46.4,25.6
		c1.5,0.8,3,1.5,5.1,2.5c-2.7-19.4-5.2-37.8-7.9-57.7c18.2,12.7,35.3,24.6,53,37c3.2-13,6.2-25.3,9.4-38.3
		c10.8,10.5,20.9,20.3,31.2,30.4c8.6-17.9,17.1-35.7,26.2-54.6c6.6,13.8,12.6,26.5,19.1,40.1c17.4-25.6,34.3-50.3,51.2-75.1
		c0.5,0.2,0.9,0.4,1.4,0.5c0,22.1,0,44.1,0,66.3c8.6,2.3,16.1,6.9,25.4,3.9c8.9-2.9,18.4-4.2,27.8-6.3c5.2,8,10.2,15.8,15.5,23.9
		c22.7-8.1,45.1-16,67.4-23.9c0.3,0.3,0.6,0.6,0.8,1c-16.5,28.1-33.1,56.3-50.1,85.3c17.1-0.8,33-1.5,48.9-2.2
		c0.1,0.4,0.2,0.8,0.3,1.3c-12,13.2-24.1,26.5-36.1,39.7c6.6,6,19.9,7.9,29.6,4.4c0.1-3.4,0.3-6.8,0.5-10.7
		c16.6-7.4,33-14.8,49.5-22.2c2.3,1.9,4.3,3.4,6.2,5c9.7,7.6,19.3,15.2,29,22.9c0,0.3,0,0.7,0,1c-7.6,2.9-15.2,5.9-23.8,9.2
		c6.6,2.8,11.9,5,18.6,7.8c-33.6,13.4-65.6,26.1-98.8,39.3c23.3,9.5,45.4,18.5,67.5,27.4c-0.1,0.4-0.1,0.8-0.2,1.2
		c-24.1,6.8-48.2,13.6-72.9,20.6c9.5,13.6,18.6,26.6,28.3,40.4c-10.5,0.5-19.8,1-30,1.6c5.1,7,9.6,13.3,14.3,19.8
		c13.5-3.5,26.6-7,39.8-10.5c5.2,8.2,10.2,16.1,15.1,24c4.9,7.8,9.8,15.7,15,24c-6.2,1.2-11.5,2.2-17.1,3.3
		c1.3,11.1,2.5,21.6,3.7,32.1c-4.7,3.8-9.1,7.4-13.2,10.7c0,8.1,0,15.7,0,23.5c-1.2,1-2.3,2.3-3.7,3.1c-19.6,10.5-23,32.2-33.7,48.7
		c12.6,0,25.2,0,38.9,0c-23,22.5-45.3,44.2-68,66.3c4.6,3,8.8,5.6,13.1,8.4c1.4,11.1,2.9,22.1,4.3,33c-2.5,2-4.5,3.7-6.7,5.6
		c2.1,5,4.2,9.7,6,14.5c0.6,1.6,1.2,3.6,0.9,5.3c-0.8,6.1-0.6,12.7-3.2,18.1c-2.6,5.5-7.1,10.8-12.2,14.1c-3.7,2.5-9.6,1.6-14.4,2.2
		c-2.9-1.8-5.5-3.5-7.8-4.9c-17,29.8-33.9,59.1-61.8,80.5c-6.9-9.5-13.7-18.7-20.9-28.5c-2.2,4.8-4,8.9-5.7,12.7
		c2.5,4.5,4.6,8.5,7.2,13.1c-19.9,0.7-38.8,1.4-57.7,2c0.5,5.2,0.9,9.3,1.4,14.2c-57.3-12.7-113.9-25.2-170.7-37.7
		c-10.6,16-21.1,31.8-31.8,47.9c-3.2-2.5-5.9-4.6-9-7c-6.4,9.9-12.8,19.5-19.3,29.6c-9-7.7-17.5-15-26.1-22.4
		c-16.1,5.1-32.1,10.2-48.8,15.6c0-6.3,0-11.7,0-18.6c-18.4,7.6-35.6,4.1-53.3-1.4c-1.1-4.3-2.2-9-3.4-13.7
		c6-7.9,9.7-17.3,20.4-20.5c-0.2-0.4-0.5-0.7-0.7-1.1c-5.7-1.1-11.3-2.1-17.3-3.3c-1.1-7.6-3.5-15.1,3.7-22.6
		c-12.3,0.9-23,1.6-34,2.4c1,5.1,2,9.7,3,14.7c-1.7-0.2-2.3-0.3-3-0.4c-34.7-7.3-69.3-14.7-104-22c-8.4-1.8-17.2-4.8-25.5-4
		c-29,2.6-57.9,6.7-86.8,10.1c-9.5,1.1-19.1,2.2-29.5,3.4c2.5-5,4.5-9.2,7.1-14.4c-37.2,5.2-73.3,10.3-110.4,15.5
		c2.6-25.1,5-49.5,7.6-74.8c-23.4,1.9-46.5-2-68.7,6.4c0-16.5,0-32,0-48.1c8.8-0.6,17.2-1.1,26.8-1.8c-7.5-8.3-14.1-15.7-20.8-23.1
		c2.8-5.7,5.4-11.1,8-16.3c-3.8-6.6-7.3-12.8-11-19.1c3.8-7.7,4.4-17.3,14.2-20.3c0.5-5.4,1-10.4,1.5-15.6
		c8.5-3.9,16.9-7.7,25.4-11.5c6,3.1,11.7,6.1,17.1,9c1,2,1.9,3.5,2.7,5.1c-4.3-24.7-9.2-49.2-14.2-73.6c-0.4-1.9-1.7-3.9-3.1-5.4
		c-4.1-4.6-8.4-9-13-13.8c1.5-20.3,3-41.1,4.5-62c3.3,0.2,5.6,0.3,8.5,0.5c-0.5-6-1-11.6-1.5-17.4c-7-1.6-13.7-3.2-21-4.9
		c-3.2-15.8-6.4-31.5-9.6-47.6c4.7-1.2,8.8-2.2,12.9-3.2c0-3.6,0-6.7,0-10.3c-2.5-2.3-5-4.7-8-7.4c-12.7,3.5-25.6,7-38.8,10.6
		c-0.9-3.1-1.7-5.7-2.4-8.2C8.2,266.3,4.6,253.9,1,241.5z"/>
	<path d="M1097.4,269.9c2.8,1.2,4.9,2.1,7.5,3.3c-1.7,6.2-3.9,12.2-4.7,18.3c-2.2,15.8-9.7,27.3-24.2,34.3c-3.4,1.6-6.3,4.2-9.4,6.4
		c-0.4-0.3-0.7-0.5-1.1-0.8C1076,311.1,1086.6,290.8,1097.4,269.9z"/>
	<path d="M466.4,74.1c13.1,5.9,26.3,11.7,39.8,17.7c-1.4,10.3-2.8,20.3-4.3,31.6c-1.9-2.3-3.3-3.6-4.4-5.1
		c-5.8-7.9-11.6-15.8-20.2-21.1c-2-1.3-3.3-4.1-4.4-6.4c-2.6-5.1-5-10.4-7.4-15.6C465.8,74.8,466.1,74.5,466.4,74.1z"/>
</g>
</svg>
