<?xml version="1.0" encoding="utf-8"?>
<!-- Generator: Adobe Illustrator 19.1.0, SVG Export Plug-In . SVG Version: 6.00 Build 0)  -->
<svg version="1.1" baseProfile="tiny" id="レイヤー_1"
	 xmlns="http://www.w3.org/2000/svg" xmlns:xlink="http://www.w3.org/1999/xlink" x="0px" y="0px" viewBox="0 0 347 222"
	 xml:space="preserve">
<g>
	<path d="M211.8,0c1.3,0,2.7,0,4,0c4.9,4.4,9.8,8.8,14.6,13.2c0.9,7.4,1.7,14.6,2.6,22.2c2-0.5,3.6-0.9,5.2-1.3
		c34.4-9.4,68.8-18.9,103.2-28.3c1.7-0.5,3.6-0.5,5.3-0.8c0,0.3,0,0.7,0,1c-0.6,1.5-1.4,2.9-1.8,4.4c-10,37.1-20,74.2-30,111.4
		c-0.3,1.3-0.8,2.5-1.1,3.7c-3.1,0.8-6,1.5-8.8,2.2c-0.6,8.3-1.3,16-1.9,23.9C224,174.8,145.2,198,66,221.3c0-6.4,0.1-12.2,0-18
		c-0.1-5.9,0.9-11.8,0.4-17.9c-5.5,0.5-10.4,1-15.5,1.5c-4.4-31-8.7-61.4-13-91.9c-6.5-0.4-12.5-0.8-18.5-1.2c-4.2-3-8.3-6-12.7-9.2
		C4.2,68,1.9,51.3,0,34.7c0.8-0.4,1.1-0.6,1.4-0.6c23-3.7,46-7.4,69-11c21.7-3.4,43.4-6.9,65.1-10.3C155.8,9.5,176,6.3,196.2,3
		C201.4,2.1,206.6,1,211.8,0z"/>
</g>
</svg>
