<?xml version="1.0" encoding="utf-8"?>
<!-- Generator: Adobe Illustrator 19.1.0, SVG Export Plug-In . SVG Version: 6.00 Build 0)  -->
<svg version="1.1" baseProfile="tiny" id="レイヤー_1"
	 xmlns="http://www.w3.org/2000/svg" xmlns:xlink="http://www.w3.org/1999/xlink" x="0px" y="0px" viewBox="0 0 1049 604"
	 xml:space="preserve">
<g>
	<path d="M1048,43c0,0.3,0,0.7,0,1c-0.6,1.9-1.3,3.7-1.8,5.6c-6.9,25-13.7,50-20.5,75.1c-6.8,25-13.6,50-20.4,75
		c5.2,11,10.4,21.8,15.9,33.3c-9.2,14-12,29.4-7.2,45.9c-10.8,5.3-20.8,10.1-30.9,15c4.6,17.3,10,33.8,13.1,50.7
		c2.1,11.3,1,23.1,1.2,34.7c0,0.7-0.5,1.6-0.9,2.3c-9,12.6-14.9,27.7-29.1,36.2c-0.4,0.2-0.6,0.8-1.1,1.4c0.2,3.1,0.5,6.4,0.6,9.7
		c0.5,14.5,3.1,28.8-2.1,43.4c-3.6,10.3-7.5,19.4-17.5,24.5c-4.9,2.5-10.2,4-16.5,6.4c0,6.9,0,15.2,0,23.1c-7.3,5.8-13.9,11-20.2,16
		c-5.8-1.3-11-2.5-17.1-3.9c-12.3,15.1-29.6,15.4-47.1,15.4c-3.3-7.1-6.5-14-9.8-21c-6.7,0.5-13,1-19.3,1.5
		c-2.2-4.1-4.2-7.9-6.3-11.9c-5.1,5-10,9.7-14.5,14.1c-74.2,0-148.1,0-222.4,0c-2.5-12.4-4.9-24.3-7.3-36.2
		c-6.1-2.3-12-4.6-17.9-6.9c-3.8,2.8-7.4,5.5-11.1,8.3c-2,9.9-4,19.8-6,30c-86.8,13.9-173.3,27.8-260,41.7c-0.4-1.8-0.6-3.1-1.1-5.4
		c-4.2,9.4-8,17.8-12,26.8c-9.5-8.4-18.4-16.1-27.3-24c-27,10.2-53.7,20.3-80.6,30.4c-5.6-13.7-10.8-26.6-16.2-39.8
		c-2.1,0.6-3.8,1.1-5.5,1.6c-24.2,7.8-48.5,15.5-72.7,23.3c-18,5.8-36,11.8-54,17.7c-0.7,0-1.3,0-2,0c0.6-1.7,1-3.5,1.8-5.1
		c15.5-33.2,31-66.3,46.6-99.5c2.2-4.8,4.5-9.6,6.8-14.5c9.7-1,19.1-1.9,28.3-2.8c0.6-1.3,1.1-2,1.3-2.8
		c4.5-14.3,8.9-28.6,13.3-42.9c0.4-1.2,0.7-2.6,0.6-3.9c-0.7-9.6-1.4-19.3-2.2-30.3c-2.8-2.3-6.3-5.3-9.6-8.1
		c0.6-3.8,1.2-6.9,1.7-10.1c-5.7-7.3-11.3-14.6-17.1-22.1c4.4-11,2.2-25.2,16.9-30.5c-1.7-4.3-3.1-7.8-4.5-11.2
		c1.9-4.4,3.7-8.6,5.4-12.8c-6.3,3.4-11.7,7.5-17.2,11.4c-1.5,1-3.1,2.4-4.8,2.5c-8.1,0.3-16.2,0.1-25.1,0.1
		c1.3-5.4,2.4-10,3.5-14.8c-3-5.1-6-10.3-9-15.5c6.7-19.6,8.6-41.4,27.9-54.1c-1.8-7.2-3.4-13.4-5.1-19.8c-14-2.1-27.5-4.1-42.3-6.2
		c2.2-2,3.4-3.2,4.8-4.3c8.6-7.1,17.1-14.3,25.9-21.2c3.3-2.6,4.6-5.6,5-9.7c0.8-10.6,2.1-21.1,3.3-32.8
		c11.1,7.4,21.4,14.3,32.4,21.6c5.7-2.5,12-4.4,17.2-7.9c5.3-3.6,9.5-8.7,14-13c8,0,15.5,0.5,23-0.1c9.8-0.8,18.4,1.3,25.8,7.9
		c3.2,2.8,6.9,3.7,11.1,3.4c5.3-0.3,10.6-0.1,15.7-0.1c8.2,9.1,18.9,15.7,21.1,28.9c3.6-1.2,6.4-2.1,9.4-3.1
		c1.1-4.3,2.2-8.5,3.2-12.4c-1.8-2.2-3.3-3.9-5.2-6.3c5.7-9.9,5.1-23.2,17.2-29.5c-0.8-5-1.6-9.5-2.5-14.4c6.6,0,12.7,0,18.5,0
		c8-6.7,13.1-16.7,24.9-16.4c1.3-5.6,2.4-10.5,3.7-15.9c4.2,1.4,7.8,2.5,11.4,3.9c5.3,2,10.6,3.1,16.5,2.4
		c11.2-1.2,22.5-1.6,34.5-2.4c7.7,12.8,20.1,15.6,33.9,14.9c3.4,16.7,6.7,32.6,10,49.1c3.9-2.5,7.1-4.6,10.7-6.9
		c1.7,4.8,3.3,9,5,13.9c12.1-6.6,23.7-13,34.7-19c6.2,2.6,11.4,6.1,17.1,7c5.9,0.9,12.1-0.8,18.4-1.3c1.4,4,2.6,7.6,3.9,11.7
		c5.4,1.4,11,2.8,16.7,4.3c11-9.6,21.8-18.9,33.6-29.1c2.9,3.6,5.5,7,8,10.1c4.2-1.5,7.4-2.7,10.6-3.9c-1.2-8.2-2.4-15.9-3.6-23.8
		c25.7-17.2,51.1-34.2,76.7-51.4c9.5,7.8,18.7,15.2,27.9,22.8c5.6-3.3,11-6.5,17-10.1c2.1,2.7,3.9,5.1,6.2,7.9
		c5.2-1.8,10.3-2.9,14.8-5.3c17.4-9.4,34.6-19.3,51.9-29C772.1,34.3,802.5,17.2,833,0c0.3,0,0.7,0,1,0c11.4,7.1,22.7,14.3,34.2,21.5
		c0,2.4,0,4.8,0,7.4c8.6,4.5,17.1,8.9,25.9,13.4c5.5-4.5,10.7-8.9,16-13.3c10.1,2,19.9,2.5,29.4-2.1c5.3,7.2,10.2,13.9,15.4,20.8
		c13.5-7.4,26.6-14.6,39.7-21.8C1012.5,31.7,1030.3,37.3,1048,43z"/>
	<path d="M178.6,151c0.7-6.3,1.3-11.6,2-17.3c-2.7-4-5.6-8.4-9-13.6c5.5-0.4,10.2-0.7,15-1c3.3-4.1,6.5-8.1,10.2-12.8
		c2.8,4.8,5.3,9.2,8,14c5.4,2.1,11,4.3,17.6,6.8c-5.2,3.9-9.7,7.1-14.4,10.6c0,4.8,0,9.6,0,15.6c-4.8-3-8.8-5.4-13.3-8.1
		C189.9,146.9,184.8,148.8,178.6,151z"/>
</g>
</svg>
