<?xml version="1.0" encoding="utf-8"?>
<!-- Generator: Adobe Illustrator 19.1.0, SVG Export Plug-In . SVG Version: 6.00 Build 0)  -->
<svg version="1.1" id="レイヤー_1" xmlns="http://www.w3.org/2000/svg" xmlns:xlink="http://www.w3.org/1999/xlink" x="0px"
	 y="0px" viewBox="0 0 607 504" enable-background="new 0 0 607 504" xml:space="preserve">
<path d="M211.6,0l158,0l-39,62.8l5.2,35L280.1,150l74.4-1l18.5-35.9l54.5,28l-4,8l23.7,7.1l-1.7,7.4l16.3,2.4v-5.9l30.8,4l0.4,25.8
	l6.3,0.1l12.6,44h2.6l92.1-1v1L582,313.1l-80.5-5.9l14.1,78.9l-83-0.4l-2.3,35.4l-50.9,1l-6.2,0l-21,73l-193.9,9l14.9-41h-30.8
	l17-40.7l-11.4,0.9L135.7,357c0,0,23.5,0,35.1,0c0.1,0,0.3-0.1,0.4-0.2c0.1-0.1,0.3-0.3,0.3-0.3l-29-30l19.5-27.4h-11.9L128.4,240
	h24.9l3.1-18.2L0,229.9L124.3,49h53.4L211.6,0z"/>
</svg>
