<?xml version="1.0" encoding="utf-8"?>
<!-- Generator: Adobe Illustrator 19.1.0, SVG Export Plug-In . SVG Version: 6.00 Build 0)  -->
<svg version="1.1" baseProfile="tiny" id="レイヤー_1"
	 xmlns="http://www.w3.org/2000/svg" xmlns:xlink="http://www.w3.org/1999/xlink" x="0px" y="0px" viewBox="0 0 329 140"
	 xml:space="preserve">
<g>
	<path d="M92.2,0c2.7,0,5.3,0,8,0c4.3,0.5,8.5,0.9,13.5,1.4c5.9,5.9,12.2,12.3,18.8,18.9c13.4-0.6,26.9-1.1,40.9-1.7
		c-1.4,6.5-2.6,12.2-3.9,18.5c8.4-1.6,16-3.1,23.7-4.6c3.5-7.2,6.9-14.2,10.3-21.3c13.2-2.2,26.3-4.5,39.1-6.7
		c5.3,4.3,10.1,8.3,15.2,12.5c1.1-2.3,2.1-4.4,3.2-6.5c22-1.5,43.8-2.9,66.3-4.4c-12.7,26.4-25,52-37.1,77.3
		c2.9,11.8,5.6,23,8.5,34.9c-18.2,3.6-35.8,7-53.7,10.6c0-7.2,0-13.6,0-20.4c-10.1,1.9-19.9,3.6-29.6,5.8
		c-16,3.6-32.7,4.3-47.8,11.9c-1.2,0.6-2.9,0.4-4.3,0.2c-8.9-1.2-17.8-2.2-26.7-3.9c-6.5-1.2-12.3-1-17.9,3.1
		c-2.8,2-6.1,3.4-9.3,5.1c-4.9-3-9.7-6-14.5-9c-7.5,6-14.8,11.9-22.3,17.8c-17.4-3.9-34.7-7.7-52.3-11.6C13.7,107.5,6.9,87.4,0,66.7
		c12.7-1.3,24.9-2.5,38.2-3.8c-4.4-2.8-7.9-4.9-11.5-7.2c5.4-10.1,10.6-20,16.1-29.7c1.4-2.4,3.8-4.7,6.2-5.8
		c12.8-6,25.8-11.6,38.7-17.4C89.3,2.1,90.7,0.9,92.2,0z"/>
</g>
</svg>
